<?xml version="1.0" encoding="UTF-8"?>
<svg version="1.1" xmlns="http://www.w3.org/2000/svg" width="64" height="64">
<path d="M0 0 C12.54 0 25.08 0 38 0 C38 1.65 38 3.3 38 5 C36.02 5.33 34.04 5.66 32 6 C32 6.33 32 6.66 32 7 C37.61 7.33 43.22 7.66 49 8 C49 9.65 49 11.3 49 13 C48.01 13.33 47.02 13.66 46 14 C46 14.66 46 15.32 46 16 C48.475 16.99 48.475 16.99 51 18 C51.04254356 19.99954746 51.04080783 22.00041636 51 24 C50 25 50 25 48.15234375 25.09765625 C46.1015625 25.06510417 44.05078125 25.03255208 42 25 C42 26.98 42 28.96 42 31 C43.98 31 45.96 31 48 31 C48 32.98 48 34.96 48 37 C46.02 37 44.04 37 42 37 C42 37.66 42 38.32 42 39 C43.11375 39.433125 43.11375 39.433125 44.25 39.875 C46.56900199 40.82368263 48.76932676 41.86559779 51 43 C51.054348 45.0622048 51.09294961 47.12482816 51.125 49.1875 C51.14820312 50.33605469 51.17140625 51.48460937 51.1953125 52.66796875 C51.00293222 55.94997636 50.50406682 58.09704585 49 61 C44.63106114 63.86711613 39.0469038 63.38410064 34 63 C33.01 62.505 33.01 62.505 32 62 C30.58631183 61.88753299 29.16772503 61.83349246 27.74975586 61.81054688 C26.87222153 61.79382935 25.99468719 61.77711182 25.09056091 61.7598877 C23.66708092 61.73952454 23.66708092 61.73952454 22.21484375 61.71875 C21.24341934 61.70034058 20.27199493 61.68193115 19.27113342 61.66296387 C15.10233843 61.58408657 10.93337838 61.51639747 6.7644043 61.44775391 C3.72696597 61.3961636 0.68967273 61.33886704 -2.34765625 61.28125 C-3.77417259 61.26088684 -3.77417259 61.26088684 -5.22950745 61.2401123 C-6.10388962 61.22339478 -6.97827179 61.20667725 -7.87915039 61.18945312 C-8.65255264 61.17692505 -9.4259549 61.16439697 -10.22279358 61.15148926 C-12 61 -12 61 -13 60 C-13.04080783 58.00041636 -13.04254356 55.99954746 -13 54 C-11.02 53.34 -9.04 52.68 -7 52 C-7 51.34 -7 50.68 -7 50 C-7.99 49.67 -8.98 49.34 -10 49 C-10 47.02 -10 45.04 -10 43 C-7.69 43 -5.38 43 -3 43 C-3 39.37 -3 35.74 -3 32 C-4.299375 32.020625 -5.59875 32.04125 -6.9375 32.0625 C-8.29165633 32.08399454 -9.64756083 32.07148199 -11 32 C-12 31 -12 31 -12.0625 27.9375 C-12.041875 26.968125 -12.02125 25.99875 -12 25 C-5.25 23 -5.25 23 -3 23 C-3 21.35 -3 19.7 -3 18 C-4.134375 17.855625 -5.26875 17.71125 -6.4375 17.5625 C-10 17 -10 17 -11 16 C-11.125 13 -11.125 13 -11 10 C-8.94077598 7.94077598 -4.78291876 8.58572421 -1.9375 8.4375 C-1.17888672 8.39431641 -0.42027344 8.35113281 0.36132812 8.30664062 C2.24065438 8.20026367 4.12030244 8.09960066 6 8 C6 7.34 6 6.68 6 6 C3.03 5.505 3.03 5.505 0 5 C0 3.35 0 1.7 0 0 Z " fill="#60C9F2" transform="translate(13,1)"/>
<path d="M0 0 C2.61918417 1.09053305 4.63616293 2.39057902 7 4 C7.054348 6.0622048 7.09294961 8.12482816 7.125 10.1875 C7.14820312 11.33605469 7.17140625 12.48460937 7.1953125 13.66796875 C7.00293222 16.94997636 6.50406682 19.09704585 5 22 C0.63106114 24.86711613 -4.9530962 24.38410064 -10 24 C-10.66 23.67 -11.32 23.34 -12 23 C-13.41368817 22.88753299 -14.83227497 22.83349246 -16.25024414 22.81054688 C-17.12777847 22.79382935 -18.00531281 22.77711182 -18.90943909 22.7598877 C-19.85842575 22.74631226 -20.80741241 22.73273682 -21.78515625 22.71875 C-22.75658066 22.70034058 -23.72800507 22.68193115 -24.72886658 22.66296387 C-28.89766157 22.58408657 -33.06662162 22.51639747 -37.2355957 22.44775391 C-40.27303403 22.3961636 -43.31032727 22.33886704 -46.34765625 22.28125 C-47.29866714 22.26767456 -48.24967804 22.25409912 -49.22950745 22.2401123 C-50.10388962 22.22339478 -50.97827179 22.20667725 -51.87915039 22.18945312 C-52.65255264 22.17692505 -53.4259549 22.16439697 -54.22279358 22.15148926 C-56 22 -56 22 -57 21 C-57.04080783 19.00041636 -57.04254356 16.99954746 -57 15 C-55.02 14.34 -53.04 13.68 -51 13 C-51 12.34 -51 11.68 -51 11 C-51.99 10.67 -52.98 10.34 -54 10 C-54 8.02 -54 6.04 -54 4 C-51.69 4 -49.38 4 -47 4 C-46.93941406 4.71027344 -46.87882812 5.42054687 -46.81640625 6.15234375 C-46.73261719 7.07144531 -46.64882813 7.99054687 -46.5625 8.9375 C-46.48128906 9.85402344 -46.40007813 10.77054688 -46.31640625 11.71484375 C-46.23955024 13.96159732 -46.23955024 13.96159732 -45 15 C-42.9291528 15.1584265 -40.85321971 15.25124422 -38.77734375 15.31640625 C-36.88725586 15.37924805 -36.88725586 15.37924805 -34.95898438 15.44335938 C-33.61849264 15.48317596 -32.2779978 15.52288814 -30.9375 15.5625 C-29.59308477 15.60568042 -28.2486834 15.64929456 -26.90429688 15.69335938 C-23.6029766 15.79985358 -20.30157764 15.9018646 -17 16 C-17.05929688 14.76121094 -17.11859375 13.52242187 -17.1796875 12.24609375 C-17.17807504 8.5882386 -16.76490548 6.74661442 -14.125 4.0625 C-13.59132812 3.49660156 -13.05765625 2.93070313 -12.5078125 2.34765625 C-8.88268407 -0.89241968 -4.61814319 -0.57914825 0 0 Z " fill="#FA6170" transform="translate(57,40)"/>
<path d="M0 0 C12.54 0 25.08 0 38 0 C38 1.65 38 3.3 38 5 C36.02 5.33 34.04 5.66 32 6 C32 6.33 32 6.66 32 7 C37.61 7.33 43.22 7.66 49 8 C49 9.65 49 11.3 49 13 C48.01 13.33 47.02 13.66 46 14 C46 14.66 46 15.32 46 16 C48.475 16.99 48.475 16.99 51 18 C51.04254356 19.99954746 51.04080783 22.00041636 51 24 C50 25 50 25 48.15234375 25.09765625 C46.1015625 25.06510417 44.05078125 25.03255208 42 25 C41.93941406 24.14535156 41.87882812 23.29070313 41.81640625 22.41015625 C41.73261719 21.30542969 41.64882813 20.20070313 41.5625 19.0625 C41.48128906 17.96035156 41.40007813 16.85820312 41.31640625 15.72265625 C41.29581916 13.08890097 41.29581916 13.08890097 40 12 C36.97022196 11.91128727 33.96332978 11.8848065 30.93359375 11.90234375 C30.02497086 11.9037587 29.11634796 11.90517365 28.18019104 11.90663147 C25.26592779 11.91224807 22.35174019 11.92480335 19.4375 11.9375 C17.46679798 11.94251286 15.49609476 11.94707614 13.52539062 11.95117188 C8.68356441 11.96222289 3.84179505 11.97949862 -1 12 C-1.66 13.98 -2.32 15.96 -3 18 C-9.875 17.125 -9.875 17.125 -11 16 C-11.125 13 -11.125 13 -11 10 C-8.94077598 7.94077598 -4.78291876 8.58572421 -1.9375 8.4375 C-1.17888672 8.39431641 -0.42027344 8.35113281 0.36132812 8.30664062 C2.24065438 8.20026367 4.12030244 8.09960066 6 8 C6 7.34 6 6.68 6 6 C3.03 5.505 3.03 5.505 0 5 C0 3.35 0 1.7 0 0 Z " fill="#FCF0D4" transform="translate(13,1)"/>
<path d="M0 0 C0.88022827 0.00404846 1.76045654 0.00809692 2.6673584 0.01226807 C4.0210553 0.00939789 4.0210553 0.00939789 5.40209961 0.00646973 C7.31197386 0.00510748 9.22185736 0.00880669 11.13171387 0.01715088 C14.0617749 0.02784986 16.99122278 0.01725696 19.92126465 0.00445557 C21.77413059 0.00577715 23.62699615 0.00833953 25.4798584 0.01226807 C26.80020081 0.00619537 26.80020081 0.00619537 28.1472168 0 C34.3436918 0.04797647 34.3436918 0.04797647 36.5736084 2.27789307 C36.5736084 4.25789307 36.5736084 6.23789307 36.5736084 8.27789307 C21.7236084 8.27789307 6.8736084 8.27789307 -8.4263916 8.27789307 C-8.4263916 0.21894248 -7.48605733 0.05796111 0 0 Z " fill="#368DE8" transform="translate(18.4263916015625,11.72210693359375)"/>
<path d="M0 0 C2.31 0 4.62 0 7 0 C7.06058594 0.71027344 7.12117187 1.42054687 7.18359375 2.15234375 C7.26738281 3.07144531 7.35117188 3.99054687 7.4375 4.9375 C7.51871094 5.85402344 7.59992187 6.77054688 7.68359375 7.71484375 C7.76044976 9.96159732 7.76044976 9.96159732 9 11 C11.09882573 11.08520753 13.20022837 11.10818394 15.30078125 11.10546875 C16.58791016 11.12029297 17.87503906 11.13511719 19.20117188 11.15039062 C21.25566763 11.17320473 23.30843167 11.1875247 25.36303711 11.17504883 C27.34235168 11.16622219 29.32171557 11.19786307 31.30078125 11.23046875 C32.48841064 11.23457764 33.67604004 11.23868652 34.8996582 11.24291992 C38 12 38 12 40.41870117 15.0480957 C40.94052979 16.02222412 41.4623584 16.99635254 42 18 C35.75204325 18.02527124 29.50409959 18.04283344 23.25610352 18.05493164 C21.12881986 18.05997298 19.00153969 18.06680591 16.87426758 18.07543945 C13.82372174 18.08751379 10.77322155 18.09323014 7.72265625 18.09765625 C6.28672874 18.10539818 6.28672874 18.10539818 4.8217926 18.11329651 C3.94095505 18.11337204 3.06011749 18.11344757 2.15258789 18.11352539 C1.37315323 18.115746 0.59371857 18.11796661 -0.20933533 18.12025452 C-2 18 -2 18 -3 17 C-3.04080783 15.00041636 -3.04254356 12.99954746 -3 11 C-1.02 10.34 0.96 9.68 3 9 C3 8.34 3 7.68 3 7 C2.01 6.67 1.02 6.34 0 6 C0 4.02 0 2.04 0 0 Z " fill="#FDF0D4" transform="translate(3,44)"/>
<path d="M0 0 C0.9075 0.37125 1.815 0.7425 2.75 1.125 C5.88097015 2.30359299 5.88097015 2.30359299 8.375 1.125 C8.91125 0.75375 9.4475 0.3825 10 0 C10 4 10 8 10 12 C9.0925 11.62875 8.185 11.2575 7.25 10.875 C4.11902985 9.69640701 4.11902985 9.69640701 1.625 10.875 C1.08875 11.24625 0.5525 11.6175 0 12 C0 8 0 4 0 0 Z " fill="#FFFBFB" transform="translate(47,46)"/>
<path d="M0 0 C5.61 0 11.22 0 17 0 C17 1.32 17 2.64 17 4 C11.39 4 5.78 4 0 4 C0 2.68 0 1.36 0 0 Z " fill="#2B80CC" transform="translate(28,35)"/>
<path d="M0 0 C5.61 0 11.22 0 17 0 C17 1.32 17 2.64 17 4 C11.39 4 5.78 4 0 4 C0 2.68 0 1.36 0 0 Z " fill="#2F88D2" transform="translate(28,28)"/>
<path d="M0 0 C0 2.97 0 5.94 0 9 C-6.15234375 9.09765625 -6.15234375 9.09765625 -8 9 C-9 8 -9 8 -9.0625 4.9375 C-9.041875 3.968125 -9.02125 2.99875 -9 2 C-2.25 0 -2.25 0 0 0 Z " fill="#FCF0D3" transform="translate(10,24)"/>
<path d="M0 0 C3.63 0 7.26 0 11 0 C11 1.32 11 2.64 11 4 C7.37 4 3.74 4 0 4 C0 2.68 0 1.36 0 0 Z " fill="#2879C5" transform="translate(28,42)"/>
<path d="M0 0 C1.98 0 3.96 0 6 0 C6 1.98 6 3.96 6 6 C4.02 6 2.04 6 0 6 C0 4.02 0 2.04 0 0 Z " fill="#FCF0D3" transform="translate(55,32)"/>
</svg>
