<?xml version="1.0" encoding="UTF-8"?>
<svg version="1.1" xmlns="http://www.w3.org/2000/svg" width="64" height="64">
<path d="M0 0 C12.54 0 25.08 0 38 0 C38 1.65 38 3.3 38 5 C36.02 5.33 34.04 5.66 32 6 C32 6.33 32 6.66 32 7 C37.61 7.33 43.22 7.66 49 8 C49 9.65 49 11.3 49 13 C48.01 13.33 47.02 13.66 46 14 C46 14.66 46 15.32 46 16 C48.475 16.99 48.475 16.99 51 18 C51.04254356 19.99954746 51.04080783 22.00041636 51 24 C50 25 50 25 48.15234375 25.09765625 C46.1015625 25.06510417 44.05078125 25.03255208 42 25 C42 26.98 42 28.96 42 31 C43.98 31 45.96 31 48 31 C48 32.98 48 34.96 48 37 C46.02 37 44.04 37 42 37 C42.33 37.66 42.66 38.32 43 39 C43.763125 38.773125 44.52625 38.54625 45.3125 38.3125 C48 38 48 38 49.875 39.125 C51 41 51 41 51.0625 43.3125 C49.52724581 47.19579 47.07155133 49.18985729 44 52 C45.98 52.66 47.96 53.32 50 54 C50.04254356 55.99954746 50.04080783 58.00041636 50 60 C48.06580989 61.93419011 44.51308729 61.35789863 41.9375 61.5 C36.58947889 61.81391799 31.30447497 62.24221786 26 63 C26 62.34 26 61.68 26 61 C24.854104 61.00523682 23.70820801 61.01047363 22.52758789 61.01586914 C18.29159318 61.03391717 14.05560188 61.04543128 9.81958008 61.05493164 C7.98331125 61.05997231 6.14704646 61.06680477 4.31079102 61.07543945 C1.67723599 61.08751672 -0.95626616 61.09323081 -3.58984375 61.09765625 C-4.82890724 61.10539818 -4.82890724 61.10539818 -6.09300232 61.11329651 C-8.06236368 61.11349205 -10.03161614 61.06204152 -12 61 C-13 60 -13 60 -13.0625 56.9375 C-13.041875 55.968125 -13.02125 54.99875 -13 54 C-11.02 53.34 -9.04 52.68 -7 52 C-7 51.34 -7 50.68 -7 50 C-7.99 49.67 -8.98 49.34 -10 49 C-10 47.02 -10 45.04 -10 43 C-7.69 43 -5.38 43 -3 43 C-3 39.37 -3 35.74 -3 32 C-4.299375 32.020625 -5.59875 32.04125 -6.9375 32.0625 C-8.29165633 32.08399454 -9.64756083 32.07148199 -11 32 C-12 31 -12 31 -12.0625 27.9375 C-12.041875 26.968125 -12.02125 25.99875 -12 25 C-5.25 23 -5.25 23 -3 23 C-3 21.35 -3 19.7 -3 18 C-4.134375 17.855625 -5.26875 17.71125 -6.4375 17.5625 C-10 17 -10 17 -11 16 C-11.125 13 -11.125 13 -11 10 C-8.94077598 7.94077598 -4.78291876 8.58572421 -1.9375 8.4375 C-1.17888672 8.39431641 -0.42027344 8.35113281 0.36132812 8.30664062 C2.24065438 8.20026367 4.12030244 8.09960066 6 8 C6 7.34 6 6.68 6 6 C3.03 5.505 3.03 5.505 0 5 C0 3.35 0 1.7 0 0 Z " fill="#60C9F1" transform="translate(13,1)"/>
<path d="M0 0 C4.75 0.75 4.75 0.75 7 3 C7 5.84567839 6.43496826 7.48791825 4.58984375 9.66015625 C3.10097935 11.14902065 1.55350258 12.57871041 0 14 C1.98 14.66 3.96 15.32 6 16 C6.04254356 17.99954746 6.04080783 20.00041636 6 22 C4.06580989 23.93419011 0.51308729 23.35789863 -2.0625 23.5 C-7.41052111 23.81391799 -12.69552503 24.24221786 -18 25 C-18 24.34 -18 23.68 -18 23 C-19.145896 23.00523682 -20.29179199 23.01047363 -21.47241211 23.01586914 C-25.70840682 23.03391717 -29.94439812 23.04543128 -34.18041992 23.05493164 C-36.01668875 23.05997231 -37.85295354 23.06680477 -39.68920898 23.07543945 C-42.32276401 23.08751672 -44.95626616 23.09323081 -47.58984375 23.09765625 C-48.82890724 23.10539818 -48.82890724 23.10539818 -50.09300232 23.11329651 C-52.06236368 23.11349205 -54.03161614 23.06204152 -56 23 C-57 22 -57 22 -57.0625 18.9375 C-57.041875 17.968125 -57.02125 16.99875 -57 16 C-55.02 15.34 -53.04 14.68 -51 14 C-51 13.34 -51 12.68 -51 12 C-51.99 11.67 -52.98 11.34 -54 11 C-54 9.02 -54 7.04 -54 5 C-51.69 5 -49.38 5 -47 5 C-46.93941406 5.71027344 -46.87882812 6.42054687 -46.81640625 7.15234375 C-46.73261719 8.07144531 -46.64882813 8.99054687 -46.5625 9.9375 C-46.48128906 10.85402344 -46.40007813 11.77054688 -46.31640625 12.71484375 C-46.23955024 14.96159732 -46.23955024 14.96159732 -45 16 C-40.8738429 16.38821371 -36.74400832 16.48546261 -32.6015625 16.56982422 C-31.21424389 16.60624778 -29.82726564 16.66058344 -28.44140625 16.73388672 C-19.89736766 17.24292823 -19.89736766 17.24292823 -12.14868164 14.0949707 C-9.87821685 11.83839397 -7.92862914 9.55104191 -6 7 C-4.81793717 5.64108459 -3.63099922 4.28638222 -2.4375 2.9375 C-1.633125 1.968125 -0.82875 0.99875 0 0 Z " fill="#FEA759" transform="translate(57,39)"/>
<path d="M0 0 C12.54 0 25.08 0 38 0 C38 1.65 38 3.3 38 5 C36.02 5.33 34.04 5.66 32 6 C32 6.33 32 6.66 32 7 C37.61 7.33 43.22 7.66 49 8 C49 9.65 49 11.3 49 13 C48.01 13.33 47.02 13.66 46 14 C46 14.66 46 15.32 46 16 C48.475 16.99 48.475 16.99 51 18 C51.04254356 19.99954746 51.04080783 22.00041636 51 24 C50 25 50 25 48.15234375 25.09765625 C46.1015625 25.06510417 44.05078125 25.03255208 42 25 C41.93941406 24.14535156 41.87882812 23.29070313 41.81640625 22.41015625 C41.73261719 21.30542969 41.64882813 20.20070313 41.5625 19.0625 C41.48128906 17.96035156 41.40007813 16.85820312 41.31640625 15.72265625 C41.29581916 13.08890097 41.29581916 13.08890097 40 12 C36.97022196 11.91128727 33.96332978 11.8848065 30.93359375 11.90234375 C30.02497086 11.9037587 29.11634796 11.90517365 28.18019104 11.90663147 C25.26592779 11.91224807 22.35174019 11.92480335 19.4375 11.9375 C17.46679798 11.94251286 15.49609476 11.94707614 13.52539062 11.95117188 C8.68356441 11.96222289 3.84179505 11.97949862 -1 12 C-1.66 13.98 -2.32 15.96 -3 18 C-9.875 17.125 -9.875 17.125 -11 16 C-11.125 13 -11.125 13 -11 10 C-8.94077598 7.94077598 -4.78291876 8.58572421 -1.9375 8.4375 C-1.17888672 8.39431641 -0.42027344 8.35113281 0.36132812 8.30664062 C2.24065438 8.20026367 4.12030244 8.09960066 6 8 C6 7.34 6 6.68 6 6 C3.03 5.505 3.03 5.505 0 5 C0 3.35 0 1.7 0 0 Z " fill="#FCF0D4" transform="translate(13,1)"/>
<path d="M0 0 C0.88022827 0.00404846 1.76045654 0.00809692 2.6673584 0.01226807 C4.0210553 0.00939789 4.0210553 0.00939789 5.40209961 0.00646973 C7.31197386 0.00510748 9.22185736 0.00880669 11.13171387 0.01715088 C14.0617749 0.02784986 16.99122278 0.01725696 19.92126465 0.00445557 C21.77413059 0.00577715 23.62699615 0.00833953 25.4798584 0.01226807 C26.80020081 0.00619537 26.80020081 0.00619537 28.1472168 0 C34.3436918 0.04797647 34.3436918 0.04797647 36.5736084 2.27789307 C36.5736084 4.25789307 36.5736084 6.23789307 36.5736084 8.27789307 C21.7236084 8.27789307 6.8736084 8.27789307 -8.4263916 8.27789307 C-8.4263916 0.21894248 -7.48605733 0.05796111 0 0 Z " fill="#368DE8" transform="translate(18.4263916015625,11.72210693359375)"/>
<path d="M0 0 C2.31 0 4.62 0 7 0 C7.06058594 0.71027344 7.12117187 1.42054687 7.18359375 2.15234375 C7.26738281 3.07144531 7.35117188 3.99054687 7.4375 4.9375 C7.51871094 5.85402344 7.59992187 6.77054688 7.68359375 7.71484375 C7.76044976 9.96159732 7.76044976 9.96159732 9 11 C11.14386657 11.15858842 13.29266838 11.25129298 15.44140625 11.31640625 C16.74658203 11.35830078 18.05175781 11.40019531 19.39648438 11.44335938 C20.7851533 11.48317608 22.17382522 11.52288825 23.5625 11.5625 C24.95509183 11.60567989 26.34767028 11.649294 27.74023438 11.69335938 C31.16004801 11.79985876 34.57993763 11.90186923 38 12 C37.125 16.875 37.125 16.875 36 18 C33.20006403 18.10103255 30.42531356 18.13970088 27.625 18.1328125 C26.78533691 18.13376923 25.94567383 18.13472595 25.08056641 18.13571167 C23.30175705 18.13639348 21.52294523 18.13453917 19.74414062 18.13037109 C17.01166224 18.12502283 14.27934824 18.13031605 11.546875 18.13671875 C9.8229163 18.13605797 8.09895771 18.13477681 6.375 18.1328125 C5.55209473 18.13483673 4.72918945 18.13686096 3.88134766 18.13894653 C-1.88504946 18.11495054 -1.88504946 18.11495054 -3 17 C-3.04080783 15.00041636 -3.04254356 12.99954746 -3 11 C-1.02 10.34 0.96 9.68 3 9 C3 8.34 3 7.68 3 7 C2.01 6.67 1.02 6.34 0 6 C0 4.02 0 2.04 0 0 Z " fill="#FCF0D4" transform="translate(3,44)"/>
<path d="M0 0 C0.721875 0.00257812 1.44375 0.00515625 2.1875 0.0078125 C2.909375 0.00523438 3.63125 0.00265625 4.375 0 C6.1875 0.1328125 6.1875 0.1328125 7.1875 1.1328125 C7.3125 4.1328125 7.3125 4.1328125 7.1875 7.1328125 C6.1875 8.1328125 6.1875 8.1328125 2.80859375 8.23046875 C1.41402923 8.22379619 0.01948257 8.21183782 -1.375 8.1953125 C-2.44137695 8.18854492 -2.44137695 8.18854492 -3.52929688 8.18164062 C-5.29040013 8.16982114 -7.05146036 8.15188513 -8.8125 8.1328125 C-7.83383662 6.98654928 -6.85455413 5.84081462 -5.875 4.6953125 C-5.32972656 4.05722656 -4.78445312 3.41914062 -4.22265625 2.76171875 C-1.95588848 0.14331941 -1.95588848 0.14331941 0 0 Z " fill="#FCEDD0" transform="translate(55.8125,53.8671875)"/>
<path d="M0 0 C2.3125 0.9375 2.3125 0.9375 4.3125 2.9375 C4.08506695 5.89412966 3.70014062 7.48783688 1.75 9.75 C1.275625 10.141875 0.80125 10.53375 0.3125 10.9375 C-3.05341866 9.49496343 -5.19797079 7.60485273 -7.6875 4.9375 C-3.40496385 -0.07918521 -3.40496385 -0.07918521 0 0 Z " fill="#CDC0BE" transform="translate(59.6875,39.0625)"/>
<path d="M0 0 C5.61 0 11.22 0 17 0 C17 1.32 17 2.64 17 4 C11.39 4 5.78 4 0 4 C0 2.68 0 1.36 0 0 Z " fill="#2778C5" transform="translate(28,42)"/>
<path d="M0 0 C5.61 0 11.22 0 17 0 C17 1.32 17 2.64 17 4 C11.39 4 5.78 4 0 4 C0 2.68 0 1.36 0 0 Z " fill="#2B80CC" transform="translate(28,35)"/>
<path d="M0 0 C5.61 0 11.22 0 17 0 C17 1.32 17 2.64 17 4 C11.39 4 5.78 4 0 4 C0 2.68 0 1.36 0 0 Z " fill="#2F88D2" transform="translate(28,28)"/>
<path d="M0 0 C0 2.97 0 5.94 0 9 C-6.15234375 9.09765625 -6.15234375 9.09765625 -8 9 C-9 8 -9 8 -9.0625 4.9375 C-9.041875 3.968125 -9.02125 2.99875 -9 2 C-2.25 0 -2.25 0 0 0 Z " fill="#FCF0D3" transform="translate(10,24)"/>
<path d="M0 0 C2.04119788 1.61594832 4.04072937 3.2856382 6 5 C6 5.66 6 6.32 6 7 C3.36 7.33 0.72 7.66 -2 8 C-1.47731534 5.23723823 -0.89130413 2.6739124 0 0 Z " fill="#E3BB8E" transform="translate(41,56)"/>
<path d="M0 0 C1.98 0 3.96 0 6 0 C6 1.98 6 3.96 6 6 C4.02 6 2.04 6 0 6 C0 4.02 0 2.04 0 0 Z " fill="#FCF0D3" transform="translate(55,32)"/>
<path d="M0 0 C4.75 0.75 4.75 0.75 7 3 C6.625 5.625 6.625 5.625 6 8 C3.69 6.02 1.38 4.04 -1 2 C-0.67 1.34 -0.34 0.68 0 0 Z " fill="#FC6478" transform="translate(57,39)"/>
</svg>
