<?xml version="1.0" encoding="UTF-8"?>
<svg version="1.1" xmlns="http://www.w3.org/2000/svg" width="60" height="60">
<path d="M0 0 C0.495 1.98 0.495 1.98 1 4 C1.72574219 3.91363281 2.45148437 3.82726562 3.19921875 3.73828125 C6.97253812 4.09087874 8.1840531 5.5154636 10.8125 8.1875 C11.60269531 8.96480469 12.39289062 9.74210938 13.20703125 10.54296875 C15 13 15 13 15.6640625 15.484375 C14.80749074 18.72927037 13.05717489 19.71282313 10.42675781 21.64160156 C5.76601821 25.19392012 2.53670421 28.44192275 1.30224609 34.32568359 C0.5998974 41.72123075 0.68404212 49.10608273 0.99902344 56.52246094 C0.9993457 57.34004883 0.99966797 58.15763672 1 59 C-0.54501451 60.54501451 -1.9866022 60.12719131 -4.13671875 60.12939453 C-5.45313354 60.13412277 -5.45313354 60.13412277 -6.79614258 60.13894653 C-7.75029053 60.1369223 -8.70443848 60.13489807 -9.6875 60.1328125 C-11.14675903 60.13424759 -11.14675903 60.13424759 -12.63549805 60.13571167 C-14.696778 60.13639358 -16.75806008 60.13453853 -18.81933594 60.13037109 C-21.98637688 60.125023 -25.153276 60.13031572 -28.3203125 60.13671875 C-30.31770865 60.13605797 -32.31510471 60.13477681 -34.3125 60.1328125 C-35.26664795 60.13483673 -36.2207959 60.13686096 -37.20385742 60.13894653 C-38.08146729 60.13579437 -38.95907715 60.13264221 -39.86328125 60.12939453 C-40.63969971 60.12859894 -41.41611816 60.12780334 -42.21606445 60.12698364 C-44 60 -44 60 -45 59 C-49.08642794 19.56206611 -49.08642794 19.56206611 -40.33520508 7.96459961 C-29.26663352 -3.12729876 -14.57956052 -1.70969058 0 0 Z " fill="#3D3D3E" transform="translate(45,0)"/>
<path d="M0 0 C7.59 0 15.18 0 23 0 C24 5 24 5 22.54736328 7.40356445 C20.11619257 10.08872614 17.66456856 12.7290354 15.125 15.3125 C14.22491211 16.2293457 13.32482422 17.14619141 12.39746094 18.09082031 C7.40823951 22.81366954 3.54490528 26.13821667 -3.48876953 26.39526367 C-6.7606145 26.18507713 -9.80413025 25.74515098 -13 25 C-13 25.66 -13 26.32 -13 27 C-8.38 27 -3.76 27 1 27 C0.01 28.65 -0.98 30.3 -2 32 C-2.70670728 34.69254991 -2.70670728 34.69254991 -3 37 C-6.3 37 -9.6 37 -13 37 C-13 37.66 -13 38.32 -13 39 C-9.7 39 -6.4 39 -3 39 C-2.67 40.65 -2.34 42.3 -2 44 C5.23720663 44.77259406 5.23720663 44.77259406 12.02734375 42.88671875 C13.4020945 41.64489555 14.70671142 40.32644982 16 39 C16.99 39 17.98 39 19 39 C19.0825 38.401875 19.165 37.80375 19.25 37.1875 C20.20630014 34.39829126 21.62860019 33.65523707 24 32 C24.02887236 35.81248426 24.04675492 39.6249407 24.0625 43.4375 C24.07087891 44.52611328 24.07925781 45.61472656 24.08789062 46.73632812 C24.09111328 47.77080078 24.09433594 48.80527344 24.09765625 49.87109375 C24.10289307 50.82943115 24.10812988 51.78776855 24.11352539 52.77514648 C24 55 24 55 23 56 C20.0546443 56.10110353 17.1332244 56.13969279 14.1875 56.1328125 C12.86141724 56.13424759 12.86141724 56.13424759 11.50854492 56.13571167 C9.63557871 56.13639351 7.76261014 56.13453893 5.88964844 56.13037109 C3.01231612 56.12502289 0.13513992 56.13031593 -2.7421875 56.13671875 C-4.55729201 56.13605797 -6.37239643 56.13477681 -8.1875 56.1328125 C-9.05415283 56.13483673 -9.92080566 56.13686096 -10.8137207 56.13894653 C-16.88504991 56.11495009 -16.88504991 56.11495009 -18 55 C-18.33400301 50.83786538 -18.42748093 46.66480005 -18.55761719 42.49169922 C-18.62406878 40.40425256 -18.70210332 38.31746774 -18.78125 36.23046875 C-18.82623086 34.89064865 -18.87052263 33.5508052 -18.9140625 32.2109375 C-18.9548291 30.99712402 -18.9955957 29.78331055 -19.03759766 28.53271484 C-18.99931037 24.93520141 -18.58765931 21.54582839 -18 18 C-16.85660156 17.93941406 -15.71320312 17.87882812 -14.53515625 17.81640625 C-13.04425695 17.73201572 -11.55337225 17.64736698 -10.0625 17.5625 C-9.30775391 17.52318359 -8.55300781 17.48386719 -7.77539062 17.44335938 C-4.08055813 17.55961976 -4.08055813 17.55961976 -1 16 C-0.76304852 13.30577395 -0.57831398 10.63665389 -0.4375 7.9375 C-0.293125 5.318125 -0.14875 2.69875 0 0 Z " fill="#C2D5E7" transform="translate(20,2)"/>
<path d="M0 0 C1.65 1.65 3.3 3.3 5 5 C-1.27 11.27 -7.54 17.54 -14 24 C-15.32 23.34 -16.64 22.68 -18 22 C-18 18 -18 18 -16.34765625 15.89355469 C-15.59355469 15.16040039 -14.83945312 14.42724609 -14.0625 13.671875 C-13.25039063 12.87265625 -12.43828125 12.0734375 -11.6015625 11.25 C-10.74304687 10.425 -9.88453125 9.6 -9 8.75 C-8.14148437 7.90953125 -7.28296875 7.0690625 -6.3984375 6.203125 C-4.27429428 4.12618496 -2.14139163 2.05912777 0 0 Z " fill="#DAB762" transform="translate(45,20)"/>
<path d="M0 0 C1.65 1.65 3.3 3.3 5 5 C-1.27 11.27 -7.54 17.54 -14 24 C-15.32 23.34 -16.64 22.68 -18 22 C-18 18 -18 18 -16.34765625 15.89355469 C-15.59355469 15.16040039 -14.83945312 14.42724609 -14.0625 13.671875 C-13.25039063 12.87265625 -12.43828125 12.0734375 -11.6015625 11.25 C-10.74304687 10.425 -9.88453125 9.6 -9 8.75 C-8.14148437 7.90953125 -7.28296875 7.0690625 -6.3984375 6.203125 C-4.27429428 4.12618496 -2.14139163 2.05912777 0 0 Z " fill="#DBB862" transform="translate(39,14)"/>
<path d="M0 0 C3.21524305 1.40844718 5.32183868 3.10344786 7.75 5.625 C8.67039062 6.57246094 8.67039062 6.57246094 9.609375 7.5390625 C10.06828125 8.02117188 10.5271875 8.50328125 11 9 C10.67 9.99 10.34 10.98 10 12 C9.01 12.33 8.02 12.66 7 13 C5.68 12.01 4.36 11.02 3 10 C-2.94 15.94 -8.88 21.88 -15 28 C-15.66 27.34 -16.32 26.68 -17 26 C-11.06 20.06 -5.12 14.12 1 8 C-0.32 6.02 -1.64 4.04 -3 2 C-2.01 1.34 -1.02 0.68 0 0 Z " fill="#49463E" transform="translate(42,11)"/>
<path d="M0 0 C0.02685938 2.14576637 0.04633088 4.29162645 0.0625 6.4375 C0.07410156 7.63246094 0.08570313 8.82742188 0.09765625 10.05859375 C0 13 0 13 -1 14 C-3.18639453 14.07258946 -5.37500389 14.08373783 -7.5625 14.0625 C-9.35880859 14.04896484 -9.35880859 14.04896484 -11.19140625 14.03515625 C-12.11824219 14.02355469 -13.04507812 14.01195312 -14 14 C-2.28571429 0 -2.28571429 0 0 0 Z " fill="#A6BCCB" transform="translate(18,4)"/>
<path d="M0 0 C3.85103301 0.53675903 5.31797587 2.11600923 7.75 5.0625 C8.36359375 5.79597656 8.9771875 6.52945312 9.609375 7.28515625 C10.06828125 7.85105469 10.5271875 8.41695312 11 9 C10.34 10.32 9.68 11.64 9 13 C5.78475695 11.59155282 3.67816132 9.89655214 1.25 7.375 C0.63640625 6.74335938 0.0228125 6.11171875 -0.609375 5.4609375 C-1.29773437 4.73777344 -1.29773437 4.73777344 -2 4 C-1.34 2.68 -0.68 1.36 0 0 Z " fill="#AC4C6E" transform="translate(47,6)"/>
<path d="M0 0 C0.33 0 0.66 0 1 0 C1 2.97 1 5.94 1 9 C3.64 9 6.28 9 9 9 C9 9.33 9 9.66 9 10 C5.7 10 2.4 10 -1 10 C-1 8.35 -1 6.7 -1 5 C-4.3 5 -7.6 5 -11 5 C-11 4.34 -11 3.68 -11 3 C-7.37 3 -3.74 3 0 3 C0 2.01 0 1.02 0 0 Z " fill="#393A3A" transform="translate(18,36)"/>
<path d="M0 0 C3.36179774 1.44077046 5.59156268 3.24750021 8 6 C8 6.66 8 7.32 8 8 C5.36 8 2.72 8 0 8 C0 5.36 0 2.72 0 0 Z " fill="#795E48" transform="translate(19,37)"/>
<path d="M0 0 C3.21524305 1.40844718 5.32183868 3.10344786 7.75 5.625 C8.67039062 6.57246094 8.67039062 6.57246094 9.609375 7.5390625 C10.29773438 8.26222656 10.29773438 8.26222656 11 9 C10.67 9.99 10.34 10.98 10 12 C5.86378916 8.6189962 2.18683431 5.33409466 -1 1 C-0.67 0.67 -0.34 0.34 0 0 Z " fill="#D9E2EF" transform="translate(42,11)"/>
</svg>
