<?xml version="1.0" encoding="UTF-8"?>
<svg version="1.1" xmlns="http://www.w3.org/2000/svg" width="64" height="64">
<path d="M0 0 C0.83426514 -0.00630432 1.66853027 -0.01260864 2.52807617 -0.019104 C3.43017822 -0.01505554 4.33228027 -0.01100708 5.26171875 -0.00683594 C6.64870972 -0.00970612 6.64870972 -0.00970612 8.0637207 -0.01263428 C10.02067334 -0.0139966 11.97763499 -0.0102969 13.93457031 -0.00195312 C16.93705465 0.00874572 19.93894062 -0.00184685 22.94140625 -0.01464844 C24.83984508 -0.01332685 26.73828353 -0.01076448 28.63671875 -0.00683594 C29.5388208 -0.0108844 30.44092285 -0.01493286 31.37036133 -0.019104 C32.62175903 -0.00964752 32.62175903 -0.00964752 33.8984375 0 C34.63408936 0.00159119 35.36974121 0.00318237 36.12768555 0.00482178 C37.94921875 0.25878906 37.94921875 0.25878906 39.94921875 2.25878906 C39.57421875 5.88378906 39.57421875 5.88378906 38.94921875 9.25878906 C39.73296875 9.21753906 40.51671875 9.17628906 41.32421875 9.13378906 C43.94921875 9.25878906 43.94921875 9.25878906 45.94921875 11.25878906 C46.20800781 14.20800781 46.20800781 14.20800781 46.21484375 17.94628906 C46.21771393 18.93375122 46.21771393 18.93375122 46.22064209 19.94116211 C46.22200325 21.33317446 46.21831158 22.72519953 46.20996094 24.1171875 C46.19925975 26.25061495 46.20985781 28.38320037 46.22265625 30.51660156 C46.22133464 31.86816593 46.21877222 33.21972976 46.21484375 34.57128906 C46.21258789 35.80492187 46.21033203 37.03855469 46.20800781 38.30957031 C45.94921875 41.25878906 45.94921875 41.25878906 43.94921875 43.25878906 C41.89990234 43.51275635 41.89990234 43.51275635 39.34765625 43.51757812 C38.3932666 43.52388245 37.43887695 43.53018677 36.45556641 43.53668213 C35.42222168 43.53263367 34.38887695 43.52858521 33.32421875 43.52441406 C32.26638184 43.52632751 31.20854492 43.52824097 30.11865234 43.5302124 C27.87922936 43.53157508 25.63979849 43.52787288 23.40039062 43.51953125 C19.96336198 43.50883308 16.52685605 43.51942394 13.08984375 43.53222656 C10.91796759 43.53090498 8.74609176 43.52834262 6.57421875 43.52441406 C5.54087402 43.52846252 4.5075293 43.53251099 3.44287109 43.53668213 C2.48848145 43.53037781 1.5340918 43.52407349 0.55078125 43.51757812 C-0.29145996 43.51598694 -1.13370117 43.51439575 -2.00146484 43.51275635 C-4.05078125 43.25878906 -4.05078125 43.25878906 -6.05078125 41.25878906 C-6.25076449 38.34129771 -6.33053012 35.52076977 -6.31640625 32.60253906 C-6.3183197 31.74446655 -6.32023315 30.88639404 -6.32220459 30.00231934 C-6.32356669 28.18660184 -6.31986853 26.37087461 -6.31152344 24.55517578 C-6.30082416 21.76996056 -6.31141778 18.98539038 -6.32421875 16.20019531 C-6.32289716 14.43847513 -6.32033478 12.67675536 -6.31640625 10.91503906 C-6.32045471 10.07855835 -6.32450317 9.24207764 -6.32867432 8.38024902 C-6.28263641 2.72655939 -6.05348393 0.01309345 0 0 Z " fill="#5C8DC3" transform="translate(12.05078125,20.7412109375)"/>
<path d="M0 0 C0.83426514 -0.00630432 1.66853027 -0.01260864 2.52807617 -0.019104 C3.43017822 -0.01505554 4.33228027 -0.01100708 5.26171875 -0.00683594 C6.64870972 -0.00970612 6.64870972 -0.00970612 8.0637207 -0.01263428 C10.02067334 -0.0139966 11.97763499 -0.0102969 13.93457031 -0.00195312 C16.93705465 0.00874572 19.93894062 -0.00184685 22.94140625 -0.01464844 C24.83984508 -0.01332685 26.73828353 -0.01076448 28.63671875 -0.00683594 C29.5388208 -0.0108844 30.44092285 -0.01493286 31.37036133 -0.019104 C32.62175903 -0.00964752 32.62175903 -0.00964752 33.8984375 0 C34.63408936 0.00159119 35.36974121 0.00318237 36.12768555 0.00482178 C37.94921875 0.25878906 37.94921875 0.25878906 39.94921875 2.25878906 C39.57421875 5.88378906 39.57421875 5.88378906 38.94921875 9.25878906 C39.73296875 9.21753906 40.51671875 9.17628906 41.32421875 9.13378906 C43.94921875 9.25878906 43.94921875 9.25878906 45.94921875 11.25878906 C46.20800781 14.20800781 46.20800781 14.20800781 46.21484375 17.94628906 C46.21771393 18.93375122 46.21771393 18.93375122 46.22064209 19.94116211 C46.22200325 21.33317446 46.21831158 22.72519953 46.20996094 24.1171875 C46.19925975 26.25061495 46.20985781 28.38320037 46.22265625 30.51660156 C46.22133464 31.86816593 46.21877222 33.21972976 46.21484375 34.57128906 C46.21258789 35.80492187 46.21033203 37.03855469 46.20800781 38.30957031 C45.94921875 41.25878906 45.94921875 41.25878906 43.94921875 43.25878906 C41.89990234 43.51275635 41.89990234 43.51275635 39.34765625 43.51757812 C38.3932666 43.52388245 37.43887695 43.53018677 36.45556641 43.53668213 C35.42222168 43.53263367 34.38887695 43.52858521 33.32421875 43.52441406 C32.26638184 43.52632751 31.20854492 43.52824097 30.11865234 43.5302124 C27.87922936 43.53157508 25.63979849 43.52787288 23.40039062 43.51953125 C19.96336198 43.50883308 16.52685605 43.51942394 13.08984375 43.53222656 C10.91796759 43.53090498 8.74609176 43.52834262 6.57421875 43.52441406 C5.54087402 43.52846252 4.5075293 43.53251099 3.44287109 43.53668213 C2.48848145 43.53037781 1.5340918 43.52407349 0.55078125 43.51757812 C-0.29145996 43.51598694 -1.13370117 43.51439575 -2.00146484 43.51275635 C-4.05078125 43.25878906 -4.05078125 43.25878906 -6.05078125 41.25878906 C-6.25076449 38.34129771 -6.33053012 35.52076977 -6.31640625 32.60253906 C-6.3183197 31.74446655 -6.32023315 30.88639404 -6.32220459 30.00231934 C-6.32356669 28.18660184 -6.31986853 26.37087461 -6.31152344 24.55517578 C-6.30082416 21.76996056 -6.31141778 18.98539038 -6.32421875 16.20019531 C-6.32289716 14.43847513 -6.32033478 12.67675536 -6.31640625 10.91503906 C-6.32045471 10.07855835 -6.32450317 9.24207764 -6.32867432 8.38024902 C-6.28263641 2.72655939 -6.05348393 0.01309345 0 0 Z M-4.05078125 4.25878906 C-4.25043498 6.88819102 -4.33062235 9.40999069 -4.31640625 12.04003906 C-4.3183197 12.80932739 -4.32023315 13.57861572 -4.32220459 14.37121582 C-4.32356633 15.99861986 -4.31987064 17.62603477 -4.31152344 19.25341797 C-4.30082346 21.74894537 -4.31141876 24.24375288 -4.32421875 26.73925781 C-4.32289715 28.31868649 -4.32033475 29.89811472 -4.31640625 31.47753906 C-4.32045471 32.22652466 -4.32450317 32.97551025 -4.32867432 33.74719238 C-4.43265327 37.96190054 -4.43265327 37.96190054 -2.05078125 41.25878906 C-0.08633933 41.5637684 -0.08633933 41.5637684 2.18359375 41.51757812 C3.05790039 41.52388245 3.93220703 41.53018677 4.83300781 41.53668213 C6.25178223 41.53060944 6.25178223 41.53060944 7.69921875 41.52441406 C9.15279785 41.52728424 9.15279785 41.52728424 10.63574219 41.5302124 C12.6868516 41.53157485 14.73796961 41.52787424 16.7890625 41.51953125 C19.93639414 41.50883266 23.08315495 41.5194246 26.23046875 41.53222656 C28.22005335 41.53090498 30.20963759 41.52834261 32.19921875 41.52441406 C33.61799316 41.53048676 33.61799316 41.53048676 35.06542969 41.53668213 C35.93973633 41.53037781 36.81404297 41.52407349 37.71484375 41.51757812 C38.87161621 41.51519135 38.87161621 41.51519135 40.05175781 41.51275635 C42.19084458 41.42186326 42.19084458 41.42186326 43.94921875 39.25878906 C44.26078705 36.57352288 44.26078705 36.57352288 44.21484375 33.44628906 C44.21742187 32.28871094 44.22 31.13113281 44.22265625 29.93847656 C44.21105469 28.11703125 44.21105469 28.11703125 44.19921875 26.25878906 C44.20695312 25.04449219 44.2146875 23.83019531 44.22265625 22.57910156 C44.21878906 20.84273437 44.21878906 20.84273437 44.21484375 19.07128906 C44.21258789 18.00523438 44.21033203 16.93917969 44.20800781 15.84082031 C44.20802673 13.09555445 44.20802673 13.09555445 41.94921875 11.25878906 C39.70394223 10.9703364 39.70394223 10.9703364 37.1171875 11.02050781 C36.15361328 11.00439453 35.19003906 10.98828125 34.19726562 10.97167969 C32.16868291 10.95485035 30.13997008 10.94950646 28.11132812 10.95605469 C20.64354617 10.80182335 20.64354617 10.80182335 16.9375 7.90332031 C16.28136719 7.030625 15.62523438 6.15792969 14.94921875 5.25878906 C13.67512017 3.4213794 13.67512017 3.4213794 11.94921875 2.25878906 C8.58907681 1.81890031 8.58907681 1.81890031 4.88671875 1.94628906 C3.63761719 1.95015625 2.38851563 1.95402344 1.1015625 1.95800781 C-2.14685992 1.93037027 -2.14685992 1.93037027 -4.05078125 4.25878906 Z " fill="#000001" transform="translate(12.05078125,20.7412109375)"/>
<path d="M0 0 C1.46566406 -0.00386719 1.46566406 -0.00386719 2.9609375 -0.0078125 C3.98445313 -0.00007813 5.00796875 0.00765625 6.0625 0.015625 C7.08601563 0.00789063 8.10953125 0.00015625 9.1640625 -0.0078125 C10.14117187 -0.00523438 11.11828125 -0.00265625 12.125 0 C13.02347656 0.00225586 13.92195313 0.00451172 14.84765625 0.00683594 C17.0625 0.265625 17.0625 0.265625 19.0625 2.265625 C18.6875 5.890625 18.6875 5.890625 18.0625 9.265625 C15.0178906 9.45553628 11.98518634 9.59364067 8.9375 9.703125 C8.0815625 9.76177734 7.225625 9.82042969 6.34375 9.88085938 C0.02892313 10.05087394 0.02892313 10.05087394 -2.89355469 7.67626953 C-4.38559351 5.93555758 -5.70686209 4.19810623 -6.9375 2.265625 C-4.40695663 -0.26491837 -3.50201118 0.00879271 0 0 Z " fill="#4C75A2" transform="translate(32.9375,20.734375)"/>
<path d="M0 0 C0 1.98 0 3.96 0 6 C-1.65 6.66 -3.3 7.32 -5 8 C-4.7525 8.53625 -4.505 9.0725 -4.25 9.625 C-4 12 -4 12 -5.6875 15.25 C-6.450625 16.1575 -7.21375 17.065 -8 18 C-9.32 18 -10.64 18 -12 18 C-16 13 -16 13 -16 9 C-15.01 9 -14.02 9 -13 9 C-12.87625 7.88625 -12.87625 7.88625 -12.75 6.75 C-10.78913311 -0.43984526 -6.5222258 -0.43481505 0 0 Z " fill="#040301" transform="translate(59,0)"/>
<path d="M0 0 C7.18781726 -0.60913706 7.18781726 -0.60913706 11 2.25 C13 5 13 5 13 9 C13.99 9 14.98 9 16 9 C15.47679633 12.76706644 14.72611199 15.27388801 12 18 C10.68 18 9.36 18 8 18 C5.6875 15.25 5.6875 15.25 4 12 C4.25 9.625 4.25 9.625 5 8 C2.525 7.01 2.525 7.01 0 6 C0 4.02 0 2.04 0 0 Z " fill="#040301" transform="translate(5,0)"/>
<path d="M0 0 C3.62493334 -0.05787784 7.24974857 -0.0935542 10.875 -0.125 C11.90753906 -0.14175781 12.94007812 -0.15851562 14.00390625 -0.17578125 C14.99003906 -0.18222656 15.97617187 -0.18867188 16.9921875 -0.1953125 C18.35899658 -0.21102295 18.35899658 -0.21102295 19.75341797 -0.22705078 C22 0 22 0 24 2 C24.125 4.625 24.125 4.625 24 7 C23.34 7 22.68 7 22 7 C21.34 5.68 20.68 4.36 20 3 C13.4 2.67 6.8 2.34 0 2 C0 1.34 0 0.68 0 0 Z " fill="#000102" transform="translate(28,21)"/>
<path d="M0 0 C0 0.66 0 1.32 0 2 C-0.78375 2.226875 -1.5675 2.45375 -2.375 2.6875 C-5.21875 3.78125 -5.21875 3.78125 -6.3125 6.625 C-6.539375 7.40875 -6.76625 8.1925 -7 9 C-6.34 9.33 -5.68 9.66 -5 10 C-5.99 11.485 -5.99 11.485 -7 13 C-7.66 13 -8.32 13 -9 13 C-9.66 11.68 -10.32 10.36 -11 9 C-10.34 9 -9.68 9 -9 9 C-8.9175 8.071875 -8.835 7.14375 -8.75 6.1875 C-8 3 -8 3 -6.1875 1.125 C-4 0 -4 0 0 0 Z " fill="#D5A755" transform="translate(57,2)"/>
<path d="M0 0 C5.46835443 0.48607595 5.46835443 0.48607595 7.875 2.8125 C9 5 9 5 9 9 C9.66 9.33 10.32 9.66 11 10 C10.01 11.485 10.01 11.485 9 13 C8.34 13 7.68 13 7 13 C6.34 11.68 5.68 10.36 5 9 C5.66 9 6.32 9 7 9 C6.36078035 6.52372901 6.36078035 6.52372901 5 4 C2.47627099 2.63921965 2.47627099 2.63921965 0 2 C0 1.34 0 0.68 0 0 Z " fill="#C79B4F" transform="translate(7,2)"/>
<path d="M0 0 C0 0.66 0 1.32 0 2 C-1.175625 2.433125 -1.175625 2.433125 -2.375 2.875 C-5.09671632 3.84912254 -5.09671632 3.84912254 -7 6 C-7 4.68 -7 3.36 -7 2 C-4 0 -4 0 0 0 Z " fill="#C89C50" transform="translate(57,2)"/>
<path d="M0 0 C0.66 0.33 1.32 0.66 2 1 C2 1.66 2 2.32 2 3 C2.66 3.33 3.32 3.66 4 4 C3.01 5.485 3.01 5.485 2 7 C1.34 7 0.68 7 0 7 C-0.66 5.68 -1.32 4.36 -2 3 C-1.34 3 -0.68 3 0 3 C0 2.01 0 1.02 0 0 Z " fill="#D9A957" transform="translate(14,8)"/>
<path d="M0 0 C2.64752004 2.57784846 4.94432065 4.91648098 7 8 C3.59679258 6.98823563 2.24274669 6.35156418 0.1875 3.375 C-0.204375 2.59125 -0.59625 1.8075 -1 1 C-0.67 0.67 -0.34 0.34 0 0 Z " fill="#0C131B" transform="translate(27,24)"/>
</svg>
