<?xml version="1.0" encoding="UTF-8"?>
<svg version="1.1" xmlns="http://www.w3.org/2000/svg" width="64" height="64">
<path d="M0 0 C1.34644592 -0.00472824 1.34644592 -0.00472824 2.72009277 -0.009552 C4.18412537 -0.00651566 4.18412537 -0.00651566 5.67773438 -0.00341797 C6.67276978 -0.00437469 7.66780518 -0.00533142 8.69299316 -0.00631714 C10.80135155 -0.00699907 12.90971203 -0.0051439 15.01806641 -0.00097656 C18.25753465 0.0043715 21.49686423 -0.00092114 24.73632812 -0.00732422 C26.77929718 -0.00666344 28.82226615 -0.00538228 30.86523438 -0.00341797 C31.8412561 -0.0054422 32.81727783 -0.00746643 33.82287598 -0.009552 C34.72050659 -0.00639984 35.61813721 -0.00324768 36.54296875 0 C37.73424377 0.00119339 37.73424377 0.00119339 38.94958496 0.00241089 C40.77148438 0.12939453 40.77148438 0.12939453 41.77148438 1.12939453 C41.89648438 3.62939453 41.89648438 3.62939453 41.77148438 6.12939453 C39.80325552 8.09762339 36.42339728 7.79187834 33.77148438 8.12939453 C33.77148438 8.78939453 33.77148438 9.44939453 33.77148438 10.12939453 C34.77050781 10.18998047 35.76953125 10.25056641 36.79882812 10.31298828 C38.08917969 10.39677734 39.37953125 10.48056641 40.70898438 10.56689453 C42.64064453 10.68871094 42.64064453 10.68871094 44.61132812 10.81298828 C47.77148438 11.12939453 47.77148438 11.12939453 48.77148438 12.12939453 C48.8121227 13.79556568 48.81420538 15.46327548 48.77148438 17.12939453 C45.86548176 18.38604431 43.97543853 19.12939453 40.77148438 19.12939453 C40.77148438 20.77939453 40.77148438 22.42939453 40.77148438 24.12939453 C41.83689453 24.22027344 41.83689453 24.22027344 42.92382812 24.31298828 C43.84292969 24.39677734 44.76203125 24.48056641 45.70898438 24.56689453 C47.08376953 24.68871094 47.08376953 24.68871094 48.48632812 24.81298828 C50.77148438 25.12939453 50.77148438 25.12939453 51.77148438 26.12939453 C51.89648438 28.62939453 51.89648438 28.62939453 51.77148438 31.12939453 C50.77148438 32.12939453 50.77148438 32.12939453 48.70507812 32.22705078 C47.88136719 32.21544922 47.05765625 32.20384766 46.20898438 32.19189453 C45.38269531 32.18287109 44.55640625 32.17384766 43.70507812 32.16455078 C43.06699219 32.15294922 42.42890625 32.14134766 41.77148438 32.12939453 C41.78308594 32.82806641 41.7946875 33.52673828 41.80664062 34.24658203 C41.81566406 35.15666016 41.8246875 36.06673828 41.83398438 37.00439453 C41.84558594 37.90931641 41.8571875 38.81423828 41.86914062 39.74658203 C41.77148438 42.12939453 41.77148438 42.12939453 40.77148438 44.12939453 C41.57585938 44.10876953 42.38023438 44.08814453 43.20898438 44.06689453 C45.77148438 44.12939453 45.77148438 44.12939453 46.77148438 45.12939453 C46.8121227 46.79556568 46.81420538 48.46327548 46.77148438 50.12939453 C45.12148438 50.78939453 43.47148438 51.44939453 41.77148438 52.12939453 C41.77148438 53.11939453 41.77148438 54.10939453 41.77148438 55.12939453 C42.90585937 55.27376953 44.04023437 55.41814453 45.20898438 55.56689453 C48.77148438 56.12939453 48.77148438 56.12939453 49.77148438 57.12939453 C49.89648438 59.62939453 49.89648438 59.62939453 49.77148438 62.12939453 C48.22646987 63.67440904 46.78488217 63.25658585 44.63476562 63.25878906 C43.31835083 63.2635173 43.31835083 63.2635173 41.9753418 63.26834106 C41.02119385 63.26631683 40.0670459 63.2642926 39.08398438 63.26220703 C37.62472534 63.26364212 37.62472534 63.26364212 36.13598633 63.2651062 C34.07470638 63.26578811 32.01342429 63.26393306 29.95214844 63.25976562 C26.78510749 63.25441754 23.61820838 63.25971025 20.45117188 63.26611328 C18.45377573 63.2654525 16.45637967 63.26417134 14.45898438 63.26220703 C13.50483643 63.26423126 12.55068848 63.26625549 11.56762695 63.26834106 C10.69001709 63.2651889 9.81240723 63.26203674 8.90820312 63.25878906 C8.13178467 63.25799347 7.35536621 63.25719788 6.55541992 63.25637817 C4.77148438 63.12939453 4.77148438 63.12939453 3.77148438 62.12939453 C3.64648438 59.62939453 3.64648438 59.62939453 3.77148438 57.12939453 C5.35421038 55.54666852 7.1518244 55.78203706 9.33398438 55.56689453 C10.16027344 55.48310547 10.9865625 55.39931641 11.83789062 55.31298828 C12.47597656 55.25240234 13.1140625 55.19181641 13.77148438 55.12939453 C13.77148438 54.13939453 13.77148438 53.14939453 13.77148438 52.12939453 C13.20115479 52.10433838 12.6308252 52.07928223 12.04321289 52.0534668 C9.47322281 51.93782904 6.9036291 51.81495829 4.33398438 51.69189453 C3.43615234 51.65257812 2.53832031 51.61326172 1.61328125 51.57275391 C0.75927734 51.53085937 -0.09472656 51.48896484 -0.97460938 51.44580078 C-1.76536865 51.40914307 -2.55612793 51.37248535 -3.37084961 51.3347168 C-5.22851562 51.12939453 -5.22851562 51.12939453 -6.22851562 50.12939453 C-6.26915395 48.46322338 -6.27123663 46.79551358 -6.22851562 45.12939453 C-4.24851562 44.46939453 -2.26851562 43.80939453 -0.22851562 43.12939453 C-0.22851562 42.46939453 -0.22851562 41.80939453 -0.22851562 41.12939453 C-1.18564453 41.03851563 -1.18564453 41.03851563 -2.16210938 40.94580078 C-2.98839844 40.86201172 -3.8146875 40.77822266 -4.66601562 40.69189453 C-5.48972656 40.61068359 -6.3134375 40.52947266 -7.16210938 40.44580078 C-9.22851562 40.12939453 -9.22851562 40.12939453 -10.22851562 39.12939453 C-10.35351562 36.62939453 -10.35351562 36.62939453 -10.22851562 34.12939453 C-8.23235009 32.13322899 -4.41149599 32.71956026 -1.66601562 32.56689453 C-0.59963867 32.50211914 -0.59963867 32.50211914 0.48828125 32.43603516 C2.24910349 32.32967677 4.01026757 32.22900607 5.77148438 32.12939453 C3.13148437 29.81939453 0.49148437 27.50939453 -2.22851562 25.12939453 C-1.22851562 20.12939453 -1.22851562 20.12939453 -0.22851562 19.12939453 C-1.52789062 18.98501953 -2.82726563 18.84064453 -4.16601562 18.69189453 C-8.10351562 18.25439453 -8.10351562 18.25439453 -9.22851562 17.12939453 C-9.35351562 14.62939453 -9.35351562 14.62939453 -9.22851562 12.12939453 C-7.64578962 10.54666852 -5.8481756 10.78203706 -3.66601562 10.56689453 C-2.83972656 10.48310547 -2.0134375 10.39931641 -1.16210938 10.31298828 C-0.52402344 10.25240234 0.1140625 10.19181641 0.77148438 10.12939453 C0.77148438 9.46939453 0.77148438 8.80939453 0.77148438 8.12939453 C-1.20851563 7.46939453 -3.18851563 6.80939453 -5.22851562 6.12939453 C-5.27123663 4.46327548 -5.26915395 2.79556568 -5.22851562 1.12939453 C-3.6694478 -0.42967329 -2.16697281 0.00217082 0 0 Z " fill="#FCF4DE" transform="translate(12.228515625,-0.12939453125)"/>
<path d="M0 0 C11.88975473 -0.56221257 11.88975473 -0.56221257 16 3 C17.40457737 5.80915474 17.24895157 7.88810534 17 11 C15.44536709 13.76265914 14.55808244 14.81367956 11.51953125 15.828125 C10.62621094 15.96734375 9.73289063 16.1065625 8.8125 16.25 C7.91144531 16.39953125 7.01039062 16.5490625 6.08203125 16.703125 C5.39496094 16.80109375 4.70789063 16.8990625 4 17 C4 19.64 4 22.28 4 25 C10.55889854 25.54657488 15.55650281 24.89888929 21 21 C21.70125 20.0925 22.4025 19.185 23.125 18.25 C25 16 25 16 28.1875 15.625 C31 16 31 16 32 17 C32.04063832 18.66617115 32.042721 20.33388095 32 22 C30.35 22.66 28.7 23.32 27 24 C27 24.99 27 25.98 27 27 C28.7015625 27.2165625 28.7015625 27.2165625 30.4375 27.4375 C34 28 34 28 35 29 C35.125 31.5 35.125 31.5 35 34 C33.45498549 35.54501451 32.0133978 35.12719131 29.86328125 35.12939453 C28.54686646 35.13412277 28.54686646 35.13412277 27.20385742 35.13894653 C26.24970947 35.1369223 25.29556152 35.13489807 24.3125 35.1328125 C22.85324097 35.13424759 22.85324097 35.13424759 21.36450195 35.13571167 C19.303222 35.13639358 17.24193992 35.13453853 15.18066406 35.13037109 C12.01362312 35.125023 8.846724 35.13031572 5.6796875 35.13671875 C3.68229135 35.13605797 1.68489529 35.13477681 -0.3125 35.1328125 C-1.26664795 35.13483673 -2.2207959 35.13686096 -3.20385742 35.13894653 C-4.08146729 35.13579437 -4.95907715 35.13264221 -5.86328125 35.12939453 C-6.63969971 35.12859894 -7.41611816 35.12780334 -8.21606445 35.12698364 C-10 35 -10 35 -11 34 C-11.125 31.5 -11.125 31.5 -11 29 C-9.41727399 27.41727399 -7.61965997 27.65264253 -5.4375 27.4375 C-4.19806641 27.31181641 -4.19806641 27.31181641 -2.93359375 27.18359375 C-2.29550781 27.12300781 -1.65742188 27.06242187 -1 27 C-1 26.01 -1 25.02 -1 24 C-1.85549438 23.96241577 -1.85549438 23.96241577 -2.72827148 23.92407227 C-5.29826157 23.80843451 -7.86785527 23.68556376 -10.4375 23.5625 C-11.33533203 23.52318359 -12.23316406 23.48386719 -13.15820312 23.44335938 C-14.43920898 23.38051758 -14.43920898 23.38051758 -15.74609375 23.31640625 C-16.53685303 23.27974854 -17.3276123 23.24309082 -18.14233398 23.20532227 C-20 23 -20 23 -21 22 C-21.04063832 20.33382885 -21.042721 18.66611905 -21 17 C-19.02 16.34 -17.04 15.68 -15 15 C-15 14.34 -15 13.68 -15 13 C-15.63808594 12.93941406 -16.27617187 12.87882812 -16.93359375 12.81640625 C-17.75988281 12.73261719 -18.58617187 12.64882813 -19.4375 12.5625 C-20.26121094 12.48128906 -21.08492187 12.40007813 -21.93359375 12.31640625 C-24 12 -24 12 -25 11 C-25.125 8.5 -25.125 8.5 -25 6 C-22.84267167 3.84267167 -18.05201247 4.81479081 -15.0625 4.8125 C-14.22525391 4.80025391 -13.38800781 4.78800781 -12.52539062 4.77539062 C-11.32366211 4.77249023 -11.32366211 4.77249023 -10.09765625 4.76953125 C-9.36039307 4.76542236 -8.62312988 4.76131348 -7.86352539 4.75708008 C-6 5 -6 5 -4 7 C-3.01 7 -2.02 7 -1 7 C-0.67 4.69 -0.34 2.38 0 0 Z " fill="#FAF2D9" transform="translate(27,28)"/>
<path d="M0 0 C2.125 0.375 2.125 0.375 4 1 C4 3.31 4 5.62 4 8 C4.845625 7.95359375 5.69125 7.9071875 6.5625 7.859375 C13.6101119 7.6351328 19.23801952 7.61804941 25 12 C29.35473509 16.46933338 31.08515292 20.64636391 31.5 26.8125 C31.38283234 31.72621874 30.02334327 34.60433747 26.83984375 38.3046875 C22.69064363 42.12794196 18.76893816 43.7970071 13.1875 44.4375 C10 44 10 44 8 42.875 C6.50327339 40.06863762 7.26705602 37.99840718 8 35 C8.69867187 34.81824219 9.39734375 34.63648438 10.1171875 34.44921875 C11.02726562 34.19785156 11.93734375 33.94648437 12.875 33.6875 C13.77992187 33.44386719 14.68484375 33.20023438 15.6171875 32.94921875 C18.32113319 32.13330148 18.32113319 32.13330148 20 29 C20.33957563 24.92509248 20.31332486 23.46998729 18 20 C14.99221479 18.99740493 12.46179353 18.69685358 9.3125 18.4375 C8.31863281 18.35371094 7.32476563 18.26992188 6.30078125 18.18359375 C5.16189453 18.09271484 5.16189453 18.09271484 4 18 C4 20.31 4 22.62 4 25 C2.31640625 25.734375 2.31640625 25.734375 0 26 C-2.47265625 24.453125 -2.47265625 24.453125 -5.0625 22.25 C-5.91972656 21.53328125 -6.77695312 20.8165625 -7.66015625 20.078125 C-8.43230469 19.39234375 -9.20445313 18.7065625 -10 18 C-10.92619141 17.28070312 -10.92619141 17.28070312 -11.87109375 16.546875 C-13 15 -13 15 -12.99609375 12.57421875 C-11.69010804 9.19914196 -9.95216044 7.95590667 -7.0625 5.8125 C-3.38807956 3.07111675 -3.38807956 3.07111675 0 0 Z " fill="#2AA0EB" transform="translate(23,10)"/>
</svg>
