<?xml version="1.0" encoding="UTF-8"?>
<svg version="1.1" xmlns="http://www.w3.org/2000/svg" width="220" height="220">
<path d="M0 0 C72.6 0 145.2 0 220 0 C220 72.6 220 145.2 220 220 C147.4 220 74.8 220 0 220 C0 147.4 0 74.8 0 0 Z " fill="#FDF8EB" transform="translate(0,0)"/>
<path d="M0 0 C0.02322535 11.82259898 0.04096692 23.64519248 0.05181217 35.46780968 C0.05701875 40.95820296 0.0640758 46.44858058 0.07543945 51.93896484 C0.08634764 57.24280577 0.09229359 62.54663166 0.09487724 67.85048294 C0.09671724 69.86854921 0.10031018 71.8866147 0.10573006 73.90467453 C0.11304588 76.74294528 0.11398653 79.58115485 0.11352539 82.41943359 C0.11712067 83.24374878 0.12071594 84.06806396 0.12442017 84.9173584 C0.11439661 90.66206493 -0.33794587 96.2947528 -1 102 C-1.99 102.33 -2.98 102.66 -4 103 C-4.28875 103.61875 -4.5775 104.2375 -4.875 104.875 C-6.4118471 107.7779334 -8.07578104 108.5469799 -11 110 C-13.77075195 110.34057617 -13.77075195 110.34057617 -16.73828125 110.29296875 C-17.80498047 110.28330078 -18.87167969 110.27363281 -19.97070312 110.26367188 C-21.07349609 110.23853516 -22.17628906 110.21339844 -23.3125 110.1875 C-24.43462891 110.17396484 -25.55675781 110.16042969 -26.71289062 110.14648438 C-29.47575229 110.1112138 -32.23762829 110.06192235 -35 110 C-34.98952637 110.69561035 -34.97905273 111.3912207 -34.96826172 112.10791016 C-34.92651363 115.28023623 -34.90061415 118.45250431 -34.875 121.625 C-34.85824219 122.71941406 -34.84148437 123.81382813 -34.82421875 124.94140625 C-34.79134203 130.36606501 -34.79961266 134.94071524 -37 140 C-37.4125 141.2375 -37.825 142.475 -38.25 143.75 C-40.65787766 150.12596176 -44.10193887 156.23952485 -49 161 C-49.4125 161.763125 -49.825 162.52625 -50.25 163.3125 C-52.25038186 166.384515 -54.49667553 168.29734815 -57.3203125 170.59375 C-59.10987372 172.01950979 -59.10987372 172.01950979 -60.8125 174.0625 C-63.8276317 176.73304522 -67.23001571 178.23469264 -70.85546875 179.94921875 C-72.93021628 180.82226589 -72.93021628 180.82226589 -74 182 C-75.89767771 182.2251482 -77.79614019 182.44741474 -79.69921875 182.62109375 C-82.0984986 182.93887425 -82.0984986 182.93887425 -84.62890625 183.9921875 C-93.21780144 186.55989892 -104.26157765 186.9550494 -112.59765625 183.515625 C-116.87073175 180.24472404 -118.65844048 177.59001844 -119.79296875 172.30859375 C-120.09962187 166.48218449 -120.08651356 161.39732313 -116.25 156.75 C-114.703125 155.296875 -114.703125 155.296875 -113 154 C-112.45214844 153.45730469 -111.90429688 152.91460937 -111.33984375 152.35546875 C-107.7864272 150.2969787 -104.34785253 150.60082204 -100.3125 150.5625 C-90.55555696 150.3164955 -90.55555696 150.3164955 -82 146 C-80.17370206 142.93319201 -80.17370206 142.93319201 -79 140 C-76.8125 139.125 -76.8125 139.125 -75 139 C-75.04125 137.906875 -75.0825 136.81375 -75.125 135.6875 C-75 132 -75 132 -73 129 C-72.5396236 125.80193335 -72.5396236 125.80193335 -72.375 122.3125 C-72.30023438 121.13300781 -72.22546875 119.95351562 -72.1484375 118.73828125 C-72.07496094 117.38283203 -72.07496094 117.38283203 -72 116 C-72.66 116 -73.32 116 -74 116 C-74.27714844 115.37351562 -74.55429688 114.74703125 -74.83984375 114.1015625 C-75.20207031 113.28429687 -75.56429687 112.46703125 -75.9375 111.625 C-76.29714844 110.81289062 -76.65679687 110.00078125 -77.02734375 109.1640625 C-77.6569903 107.76316215 -78.31312642 106.37374716 -79 105 C-79.99 104.67 -80.98 104.34 -82 104 C-82.66 103.01 -83.32 102.02 -84 101 C-85.64363134 100.27840576 -87.31050386 99.60648579 -89 99 C-89.33 98.67 -89.66 98.34 -90 98 C-92.88252645 97.83976438 -95.74378527 97.74045971 -98.62890625 97.68359375 C-99.92525246 97.6524221 -99.92525246 97.6524221 -101.24778748 97.62062073 C-104.01927445 97.55502886 -106.79085921 97.49619582 -109.5625 97.4375 C-111.43685923 97.39432392 -113.31120843 97.35070994 -115.18554688 97.30664062 C-119.79026336 97.19933773 -124.39507858 97.09809785 -129 97 C-128.97381592 97.64026123 -128.94763184 98.28052246 -128.9206543 98.94018555 C-128.81638719 101.85570502 -128.75158247 104.77083198 -128.6875 107.6875 C-128.64560547 108.69490234 -128.60371094 109.70230469 -128.56054688 110.74023438 C-128.48321062 115.42681129 -128.47948809 118.17342306 -131.01953125 122.20703125 C-134.09930347 124.05973826 -136.33429681 124.78177357 -139.953125 124.54199219 C-143.82632327 123.51640772 -146.25505568 120.92113209 -149 118.125 C-149.58394531 117.56941406 -150.16789062 117.01382813 -150.76953125 116.44140625 C-152.23572674 115.01641532 -153.62508054 113.51324977 -155 112 C-155 111.34 -155 110.68 -155 110 C-155.66 110 -156.32 110 -157 110 C-157.33 109.34 -157.66 108.68 -158 108 C-158.9075 107.71125 -159.815 107.4225 -160.75 107.125 C-164.22331314 105.9226993 -166.3358999 104.50738833 -169 102 C-169 101.34 -169 100.68 -169 100 C-169.99 99.67 -170.98 99.34 -172 99 C-172 98.34 -172 97.68 -172 97 C-172.5775 96.731875 -173.155 96.46375 -173.75 96.1875 C-176.77218796 94.59245635 -179.31382547 92.53607385 -182 90.4375 C-183.95700171 88.94408993 -183.95700171 88.94408993 -186.171875 87.94921875 C-188 87 -188 87 -189.25 84.8125 C-190.18775074 81.29593472 -190.46119093 78.623643 -190 75 C-187.52194439 72.37617641 -185.19582398 71.09191738 -181.9375 69.5625 C-178.65399154 67.81595295 -177.21802529 65.93351731 -175 63 C-176.31605225 62.97812622 -176.31605225 62.97812622 -177.65869141 62.95581055 C-180.93549321 62.8945032 -184.21148944 62.82030667 -187.48779297 62.73754883 C-188.9017449 62.70443709 -190.31582464 62.67636284 -191.72998047 62.65356445 C-193.77105823 62.61976225 -195.81097928 62.56744036 -197.8515625 62.51171875 C-199.07697754 62.48553467 -200.30239258 62.45935059 -201.56494141 62.43237305 C-205.32938481 61.95854012 -207.78704784 60.9964292 -211 59 C-213.15993035 54.6801393 -213.19088962 50.77224049 -213 46 C-212.01 45.505 -212.01 45.505 -211 45 C-210.67 44.01 -210.34 43.02 -210 42 C-206.06750241 38.9290613 -202.96424643 38.62247996 -198.0546875 38.59375 C-197.40299591 38.58291382 -196.75130432 38.57207764 -196.0798645 38.56091309 C-193.30966027 38.51525836 -190.53955613 38.50354389 -187.76904297 38.48876953 C-185.73891875 38.47308372 -183.70957684 38.44010194 -181.6796875 38.40625 C-180.47038574 38.39916016 -179.26108398 38.39207031 -178.01513672 38.38476562 C-175.01894339 38.25216899 -175.01894339 38.25216899 -173.11450195 36.60229492 C-171.73746022 34.62255234 -171.5085572 33.2043978 -171.3125 30.8125 C-171.209375 29.554375 -171.10625 28.29625 -171 27 C-173.64 27 -176.28 27 -179 27 C-178.01 26.67 -177.02 26.34 -176 26 C-176 20.72 -176 15.44 -176 10 C-176.99 10 -177.98 10 -179 10 C-178.98839844 10.92683594 -178.97679687 11.85367187 -178.96484375 12.80859375 C-178.95582031 14.00613281 -178.94679687 15.20367187 -178.9375 16.4375 C-178.92589844 17.63246094 -178.91429687 18.82742187 -178.90234375 20.05859375 C-179 23 -179 23 -180 24 C-182.01964199 24.07244053 -184.04167124 24.08377188 -186.0625 24.0625 C-187.16722656 24.05347656 -188.27195313 24.04445313 -189.41015625 24.03515625 C-190.26480469 24.02355469 -191.11945313 24.01195313 -192 24 C-192 23.34 -192 22.68 -192 22 C-193.65 21.67 -195.3 21.34 -197 21 C-198.57845871 16.85654589 -199.66021929 13.43290093 -199 9 C-196.625 6.3125 -196.625 6.3125 -194 4 C-193.34 3.01 -192.68 2.02 -192 1 C-189.51020718 0.61523914 -189.51020718 0.61523914 -186.30284119 0.60127258 C-185.08880615 0.58873444 -183.87477112 0.57619629 -182.62394714 0.5632782 C-181.27004978 0.56445267 -179.91615264 0.56591199 -178.56225586 0.56762695 C-177.14080959 0.55861137 -175.71937112 0.54828465 -174.29794312 0.53674316 C-170.41731307 0.50901716 -166.53682973 0.4998597 -162.65611339 0.49388909 C-158.55792091 0.48447513 -154.4598356 0.45823604 -150.36170959 0.43388367 C-142.54829693 0.39004891 -134.73490478 0.36164321 -126.92140633 0.33856028 C-118.197181 0.31200928 -109.47307601 0.26782333 -100.7489326 0.22227693 C-67.16628695 0.04839759 -33.58312033 -0.0659085 0 0 Z " fill="#FDF7E7" transform="translate(220,0)"/>
<path d="M0 0 C0.1546875 0.9590625 0.1546875 0.9590625 0.3125 1.9375 C0.6528125 2.9584375 0.6528125 2.9584375 1 4 C1.99 4.33 2.98 4.66 4 5 C4 12.26 4 19.52 4 27 C8.0528125 26.94779297 8.0528125 26.94779297 12.1875 26.89453125 C14.86196847 26.87100323 17.53642454 26.85286251 20.2109375 26.83520508 C22.04172086 26.82030112 23.87246973 26.79997086 25.703125 26.77368164 C55.87093291 26.35192775 55.87093291 26.35192775 61.75 31.54614258 C62.1625 32.02591553 62.575 32.50568848 63 33 C63.94875 33.309375 64.8975 33.61875 65.875 33.9375 C69.29799249 35.10131745 71.25532565 36.68869528 74 39 C75.31138904 39.70885894 76.63777017 40.39456452 78 41 C78 41.66 78 42.32 78 43 C78.87785156 43.37705078 78.87785156 43.37705078 79.7734375 43.76171875 C85.2160424 46.78857095 88.97121681 52.22577092 91 58 C91.61875 58.721875 92.2375 59.44375 92.875 60.1875 C98.97899579 68.26631796 99.59681372 76.5039873 99.41162109 86.40698242 C99.37461826 88.45866623 99.37060617 90.5085608 99.37109375 92.56054688 C99.28161154 102.57758268 99.28161154 102.57758268 97 106 C96.62875 107.2684375 96.62875 107.2684375 96.25 108.5625 C94.01903048 114.69766618 90.70085002 120.44481012 86 125 C85.5875 125.763125 85.175 126.52625 84.75 127.3125 C82.74961814 130.384515 80.50332447 132.29734815 77.6796875 134.59375 C75.89012628 136.01950979 75.89012628 136.01950979 74.1875 138.0625 C71.1723683 140.73304522 67.76998429 142.23469264 64.14453125 143.94921875 C62.06978372 144.82226589 62.06978372 144.82226589 61 146 C59.10232229 146.2251482 57.20385981 146.44741474 55.30078125 146.62109375 C52.9015014 146.93887425 52.9015014 146.93887425 50.37109375 147.9921875 C41.78219856 150.55989892 30.73842235 150.9550494 22.40234375 147.515625 C18.12926825 144.24472404 16.34155952 141.59001844 15.20703125 136.30859375 C14.90037813 130.48218449 14.91348644 125.39732313 18.75 120.75 C20.296875 119.296875 20.296875 119.296875 22 118 C22.54785156 117.45730469 23.09570312 116.91460937 23.66015625 116.35546875 C27.2135728 114.2969787 30.65214747 114.60082204 34.6875 114.5625 C44.44444304 114.3164955 44.44444304 114.3164955 53 110 C54.82629794 106.93319201 54.82629794 106.93319201 56 104 C58.1875 103.125 58.1875 103.125 60 103 C59.95875 101.906875 59.9175 100.81375 59.875 99.6875 C60 96 60 96 62 93 C62.4603764 89.80193335 62.4603764 89.80193335 62.625 86.3125 C62.69976562 85.13300781 62.77453125 83.95351562 62.8515625 82.73828125 C62.92503906 81.38283203 62.92503906 81.38283203 63 80 C62.34 80 61.68 80 61 80 C60.58427734 79.06027344 60.58427734 79.06027344 60.16015625 78.1015625 C59.79792969 77.28429687 59.43570313 76.46703125 59.0625 75.625 C58.70285156 74.81289062 58.34320313 74.00078125 57.97265625 73.1640625 C57.3430097 71.76316215 56.68687358 70.37374716 56 69 C54.515 68.505 54.515 68.505 53 68 C52.34 67.01 51.68 66.02 51 65 C49.35636866 64.27840576 47.68949614 63.60648579 46 63 C45.67 62.67 45.34 62.34 45 62 C42.11747355 61.83976438 39.25621473 61.74045971 36.37109375 61.68359375 C35.50686295 61.66281265 34.64263214 61.64203156 33.75221252 61.62062073 C30.98072555 61.55502886 28.20914079 61.49619582 25.4375 61.4375 C23.56314077 61.39432392 21.68879157 61.35070994 19.81445312 61.30664062 C15.20973664 61.19933773 10.60492142 61.09809785 6 61 C6.03927612 61.96039185 6.03927612 61.96039185 6.0793457 62.94018555 C6.18361281 65.85570502 6.24841753 68.77083198 6.3125 71.6875 C6.35439453 72.69490234 6.39628906 73.70230469 6.43945312 74.74023438 C6.51678938 79.42681129 6.52051191 82.17342306 3.98046875 86.20703125 C0.90069653 88.05973826 -1.33429681 88.78177357 -4.953125 88.54199219 C-8.82632327 87.51640772 -11.25505568 84.92113209 -14 82.125 C-14.58394531 81.56941406 -15.16789062 81.01382813 -15.76953125 80.44140625 C-17.23572674 79.01641532 -18.62508054 77.51324977 -20 76 C-20 75.34 -20 74.68 -20 74 C-20.66 74 -21.32 74 -22 74 C-22.33 73.34 -22.66 72.68 -23 72 C-23.9075 71.71125 -24.815 71.4225 -25.75 71.125 C-29.22331314 69.9226993 -31.3358999 68.50738833 -34 66 C-34 65.34 -34 64.68 -34 64 C-35.485 63.505 -35.485 63.505 -37 63 C-37 62.34 -37 61.68 -37 61 C-37.5775 60.731875 -38.155 60.46375 -38.75 60.1875 C-41.77218796 58.59245635 -44.31382547 56.53607385 -47 54.4375 C-48.95700171 52.94408993 -48.95700171 52.94408993 -51.171875 51.94921875 C-53 51 -53 51 -54.25 48.8125 C-55.18775074 45.29593472 -55.46119093 42.623643 -55 39 C-52.54412572 36.39966253 -50.21574167 35.10337622 -47 33.5625 C-43.57058256 31.77634508 -41.67737301 29.79907178 -39 27 C-33.33604871 21.70081123 -27.4820231 16.71192084 -21.38671875 11.91796875 C-19.08856405 10.07117013 -16.88409294 8.15330644 -14.6875 6.1875 C-9.8167436 1.91216673 -6.72383604 -0.46910484 0 0 Z " fill="#279FEB" transform="translate(85,36)"/>
<path d="M0 0 C8.58 0 17.16 0 26 0 C25.34 0.66 24.68 1.32 24 2 C23.71837564 4.86382721 23.71837564 4.86382721 23.8125 8.0625 C23.81894531 9.14660156 23.82539062 10.23070312 23.83203125 11.34765625 C23.70168893 13.92202315 23.70168893 13.92202315 25 15 C27.5 15.16666667 27.5 15.16666667 30 15 C31.87824891 13.12175109 31.39102397 9.96064724 31.5625 7.4375 C31.64628906 6.23996094 31.73007813 5.04242188 31.81640625 3.80859375 C31.90728516 2.41833984 31.90728516 2.41833984 32 1 C31.34 0.67 30.68 0.34 30 0 C33.27075883 -0.0580476 36.54138524 -0.09361165 39.8125 -0.125 C40.74126953 -0.14175781 41.67003906 -0.15851562 42.62695312 -0.17578125 C43.51962891 -0.18222656 44.41230469 -0.18867188 45.33203125 -0.1953125 C46.56530151 -0.21102295 46.56530151 -0.21102295 47.82348633 -0.22705078 C50 0 50 0 53 2 C53.47446226 5.60591321 52.83832664 7.89782379 51 11 C53.56186087 14.85933215 53.56186087 14.85933215 57.64453125 16.66015625 C58.42183594 16.77230469 59.19914062 16.88445313 60 17 C59.88630789 14.54066009 59.75957349 12.0832091 59.625 9.625 C59.5940625 8.92632812 59.563125 8.22765625 59.53125 7.5078125 C59.40500502 3.29814173 59.40500502 3.29814173 57 0 C59.85776514 -0.53583096 61.25736803 -0.78434148 64 0 C67.0410394 2.71313602 69.52997482 5.76651249 72 9 C72.33 6.36 72.66 3.72 73 1 C72.01 0.67 71.02 0.34 70 0 C72.64 0 75.28 0 78 0 C77.01 0.33 76.02 0.66 75 1 C75 6.61 75 12.22 75 18 C71.06527452 16.68842484 69.87316576 14.66616553 67.3125 11.4375 C66.50425781 10.42558594 65.69601563 9.41367187 64.86328125 8.37109375 C64.24839844 7.58863281 63.63351563 6.80617188 63 6 C62.67 9.63 62.34 13.26 62 17 C62.66 17.33 63.32 17.66 64 18 C59.38 18 54.76 18 50 18 C49.0234375 15.94921875 48.046875 13.8984375 47.0703125 11.84765625 C46.1315023 9.83667541 46.1315023 9.83667541 44 9 C44.32960216 14.01535052 44.32960216 14.01535052 47 18 C43.7 18 40.4 18 37 18 C37.99 17.67 38.98 17.34 40 17 C40 11.72 40 6.44 40 1 C38.35 1.33 36.7 1.66 35 2 C34.96132812 3.35544922 34.96132812 3.35544922 34.921875 4.73828125 C34.83679688 6.50751953 34.83679688 6.50751953 34.75 8.3125 C34.70359375 9.48425781 34.6571875 10.65601563 34.609375 11.86328125 C34 15 34 15 32.171875 16.890625 C28.93878364 18.54206015 26.56975616 18.44621952 23 18 C20.09871079 15.81623393 19.11353804 14.62775015 18.4609375 11.01953125 C18.43257812 9.96121094 18.40421875 8.90289062 18.375 7.8125 C18.31656799 4.68518211 18.31656799 4.68518211 18 2 C17.34 1.67 16.68 1.34 16 1 C16 2.65 16 4.3 16 6 C15.34 4.68 14.68 3.36 14 2 C12.68 2 11.36 2 10 2 C10 6.95 10 11.9 10 17 C10.99 17.33 11.98 17.66 13 18 C9.7 18 6.4 18 3 18 C3.66 17.34 4.32 16.68 5 16 C5.30059943 13.63490639 5.49515012 11.25558119 5.625 8.875 C5.69976562 7.59367187 5.77453125 6.31234375 5.8515625 4.9921875 C5.90054688 4.00476563 5.94953125 3.01734375 6 2 C4.05925139 2.27617533 4.05925139 2.27617533 2 3 C1.34 3.99 0.68 4.98 0 6 C0 4.02 0 2.04 0 0 Z " fill="#115274" transform="translate(79,9)"/>
<path d="M0 0 C1.39039516 -0.19083855 2.78853147 -0.3256738 4.1875 -0.4375 C4.96480469 -0.51871094 5.74210937 -0.59992187 6.54296875 -0.68359375 C9 0 9 0 14 7 C14 13.6 14 20.2 14 27 C30.17 27 46.34 27 63 27 C63 27.66 63 28.32 63 29 C64.27875 29.0825 65.5575 29.165 66.875 29.25 C69.0859375 29.51171875 69.0859375 29.51171875 71 30 C72.5 32.0625 72.5 32.0625 73 34 C74.65 34 76.3 34 78 34 C78.495 35.98 78.495 35.98 79 38 C80.98 38.495 80.98 38.495 83 39 C83 39.66 83 40.32 83 41 C84.65 41.33 86.3 41.66 88 42 C88 42.66 88 43.32 88 44 C88.99 44 89.98 44 91 44 C91.99 46.97 91.99 46.97 93 50 C91.85050412 49.21366078 90.70551011 48.42073742 89.5625 47.625 C88.92441406 47.18414062 88.28632813 46.74328125 87.62890625 46.2890625 C86 45 86 45 85 43 C83.24317275 41.97784597 81.48399924 40.95804552 79.69140625 40 C78 39 78 39 76 37 C74.515 36.505 74.515 36.505 73 36 C70 35 70 35 68 33 C55.87168161 29.60643403 43.49766031 29.46939801 31 29.3125 C29.14581081 29.27922717 27.29164319 29.24472886 25.4375 29.20898438 C20.95845536 29.12524505 16.47944992 29.05791289 12 29 C11.98541748 28.34926514 11.97083496 27.69853027 11.95581055 27.02807617 C11.88135451 24.08061694 11.78468734 21.13429358 11.6875 18.1875 C11.65366211 16.65125977 11.65366211 16.65125977 11.61914062 15.08398438 C11.58369141 14.10107422 11.54824219 13.11816406 11.51171875 12.10546875 C11.48553467 11.19949951 11.45935059 10.29353027 11.43237305 9.36010742 C10.92483536 6.58971397 10.05644607 5.82935807 8 4 C8 3.34 8 2.68 8 2 C-2.76192413 4.28977109 -10.14669091 11.71577128 -18 19 C-19.45197883 20.31952637 -20.90979321 21.63267763 -22.375 22.9375 C-22.98085938 23.48277344 -23.58671875 24.02804688 -24.2109375 24.58984375 C-26.0524655 26.04135381 -27.87138806 27.02946548 -30 28 C-29.59007812 27.54109375 -29.18015625 27.0821875 -28.7578125 26.609375 C-28.21898437 25.99578125 -27.68015625 25.3821875 -27.125 24.75 C-26.59132812 24.14671875 -26.05765625 23.5434375 -25.5078125 22.921875 C-23.93551933 21.05901405 -23.93551933 21.05901405 -22.98046875 18.88671875 C-21.44881645 15.93935596 -18.75188087 14.7806288 -16 13 C-14.29503463 11.37253306 -12.62102968 9.71108689 -11 8 C-10.34 7.34 -9.68 6.68 -9 6 C-8.01 6 -7.02 6 -6 6 C-6 5.01 -6 4.02 -6 3 C-4.35 3 -2.7 3 -1 3 C-0.67 2.01 -0.34 1.02 0 0 Z " fill="#7CCBE6" transform="translate(77,34)"/>
<path d="M0 0 C0.66 0.33 1.32 0.66 2 1 C0.53125 2.96875 0.53125 2.96875 -2 5 C-5.66170877 5.43248529 -9.12617145 5.50699743 -12.80078125 5.48828125 C-16.46285397 5.55882906 -18.51520857 5.60127089 -21.3984375 7.97265625 C-21.92695312 8.64167969 -22.45546875 9.31070313 -23 10 C-23.70125 10.309375 -24.4025 10.61875 -25.125 10.9375 C-27.77460654 12.43894371 -28.09976657 14.16080227 -29 17 C-29.33 17.99 -29.66 18.98 -30 20 C-29.72428861 22.00875442 -29.39764263 24.01178687 -29 26 C-28.01 26 -27.02 26 -26 26 C-26 26.99 -26 27.98 -26 29 C-24.68 29 -23.36 29 -22 29 C-21.34 30.32 -20.68 31.64 -20 33 C-19.34 33 -18.68 33 -18 33 C-18 33.66 -18 34.32 -18 35 C-15.68682039 34.69257097 -13.37446648 34.37892298 -11.0625 34.0625 C-9.77472656 33.88847656 -8.48695312 33.71445313 -7.16015625 33.53515625 C-4.14533687 33.33837577 -4.14533687 33.33837577 -3 32 C-0.66702567 31.95907063 1.66705225 31.95758277 4 32 C4 31.01 4 30.02 4 29 C4.61488281 28.93941406 5.22976562 28.87882812 5.86328125 28.81640625 C6.67152344 28.73261719 7.47976562 28.64882812 8.3125 28.5625 C9.11300781 28.48128906 9.91351563 28.40007812 10.73828125 28.31640625 C13.16087179 28.04734307 13.16087179 28.04734307 16 27 C16.33 26.34 16.66 25.68 17 25 C18.33333333 24.66666667 19.66666667 24.33333333 21 24 C21.33 23.34 21.66 22.68 22 22 C22.66 22 23.32 22 24 22 C21.76030737 27.49742738 17.32235473 31.52448617 12 34 C8.0625 34.5625 8.0625 34.5625 6.16015625 34.69140625 C3.8795926 34.93762198 3.8795926 34.93762198 1.38671875 35.984375 C-7.20481929 38.56084546 -18.2565423 38.95712696 -26.59765625 35.515625 C-30.87073175 32.24472404 -32.65844048 29.59001844 -33.79296875 24.30859375 C-34.09962187 18.48218449 -34.08651356 13.39732313 -30.25 8.75 C-28.703125 7.296875 -28.703125 7.296875 -27 6 C-26.45730469 5.45988281 -25.91460937 4.91976562 -25.35546875 4.36328125 C-21.74407173 2.27310287 -18.16708376 2.50673394 -14.0625 2.4375 C-8.86889048 2.32432207 -4.81761103 2.12998742 0 0 Z " fill="#317CE1" transform="translate(134,148)"/>
<path d="M0 0 C2.10388569 -0.05402274 4.20816714 -0.09280256 6.3125 -0.125 C8.07013672 -0.15980469 8.07013672 -0.15980469 9.86328125 -0.1953125 C13 0 13 0 16 2 C16.47446226 5.60591321 15.83832664 7.89782379 14 11 C15.73122465 13.58119071 15.73122465 13.58119071 18 16 C19.32 16 20.64 16 22 16 C22.05384521 13.70858714 22.09272087 11.41681812 22.125 9.125 C22.14820312 7.84882813 22.17140625 6.57265625 22.1953125 5.2578125 C22.35641524 1.91406662 22.35641524 1.91406662 20 0 C24.95 0 29.9 0 35 0 C34.67 0.99 34.34 1.98 34 3 C31.69 2.67 29.38 2.34 27 2 C27 3.65 27 5.3 27 7 C28.32 7 29.64 7 31 7 C31 6.01 31 5.02 31 4 C31.66 4 32.32 4 33 4 C33 6.64 33 9.28 33 12 C32.34 11.34 31.68 10.68 31 10 C28.93125966 9.3574765 28.93125966 9.3574765 27 9 C27 11.31 27 13.62 27 16 C29.3431213 15.74438677 31.67843403 15.40729228 34 15 C34.33 14.34 34.66 13.68 35 13 C35.66 13.33 36.32 13.66 37 14 C36.34 15.32 35.68 16.64 35 18 C27.74 18 20.48 18 13 18 C11.68 15.36 10.36 12.72 9 10 C8.34 9.67 7.68 9.34 7 9 C7.32960216 14.01535052 7.32960216 14.01535052 10 18 C6.7 18 3.4 18 0 18 C0.99 17.67 1.98 17.34 3 17 C3 11.72 3 6.44 3 1 C2.01 0.67 1.02 0.34 0 0 Z " fill="#135274" transform="translate(41,9)"/>
<path d="M0 0 C5.71082747 -0.07443429 11.4213694 -0.12873634 17.13256836 -0.16479492 C19.07337364 -0.17983491 21.0141452 -0.20027214 22.95483398 -0.22631836 C25.75252632 -0.26291295 28.54976733 -0.27977448 31.34765625 -0.29296875 C32.2083522 -0.30845261 33.06904816 -0.32393646 33.95582581 -0.33988953 C40.81277134 -0.34178358 45.23394127 1.15596085 51 5 C51 5.99 51 6.98 51 8 C52.32 8 53.64 8 55 8 C57.29904926 11.09487401 58.61020358 14.42623779 60 18 C60.33 18.33 60.66 18.66 61 19 C61.56813396 28.07921765 61.45400574 36.44722389 58 45 C56.35 45.33 54.7 45.66 53 46 C52.67 47.32 52.34 48.64 52 50 C51.34 49.67 50.68 49.34 50 49 C50.75 47.0625 50.75 47.0625 52 45 C54.125 44.25 54.125 44.25 56 44 C55.95875 42.906875 55.9175 41.81375 55.875 40.6875 C56 37 56 37 58 34 C58.4603764 30.80193335 58.4603764 30.80193335 58.625 27.3125 C58.69976562 26.13300781 58.77453125 24.95351562 58.8515625 23.73828125 C58.92503906 22.38283203 58.92503906 22.38283203 59 21 C58.34 21 57.68 21 57 21 C56.72285156 20.37351562 56.44570312 19.74703125 56.16015625 19.1015625 C55.79792969 18.28429687 55.43570313 17.46703125 55.0625 16.625 C54.52302734 15.40683594 54.52302734 15.40683594 53.97265625 14.1640625 C53.3430097 12.76316215 52.68687358 11.37374716 52 10 C51.01 9.67 50.02 9.34 49 9 C48.01 7.515 48.01 7.515 47 6 C45.35636866 5.27840576 43.68949614 4.60648579 42 4 C41.505 3.505 41.505 3.505 41 3 C38.11747355 2.83976438 35.25621473 2.74045971 32.37109375 2.68359375 C31.07474754 2.6524221 31.07474754 2.6524221 29.75221252 2.62062073 C26.98072555 2.55502886 24.20914079 2.49619582 21.4375 2.4375 C19.56314077 2.39432392 17.68879157 2.35070994 15.81445312 2.30664062 C11.20973664 2.19933773 6.60492142 2.09809785 2 2 C2.02618408 2.64026123 2.05236816 3.28052246 2.0793457 3.94018555 C2.18361281 6.85570502 2.24841753 9.77083198 2.3125 12.6875 C2.35439453 13.69490234 2.39628906 14.70230469 2.43945312 15.74023438 C2.56288571 23.22024908 2.56288571 23.22024908 -0.28125 27.16015625 C-3.19141961 29.12953827 -5.32260019 29.82946132 -8.86328125 29.640625 C-13.09025905 28.37330442 -16.00837963 25.11892336 -19 22 C-17.68 21.67 -16.36 21.34 -15 21 C-14.46375 21.825 -13.9275 22.65 -13.375 23.5 C-11.2108641 26.25306773 -11.2108641 26.25306773 -8 26.625 C-4.92218388 26.23885568 -4.92218388 26.23885568 -2.859375 24.13671875 C-0.15881333 19.5809393 -0.32694261 15.39511568 -0.25 10.1875 C-0.20552734 8.71893555 -0.20552734 8.71893555 -0.16015625 7.22070312 C-0.08970798 4.81372047 -0.03688975 2.4076921 0 0 Z " fill="#9BCBDB" transform="translate(89,95)"/>
<path d="M0 0 C0.495 1.485 0.495 1.485 1 3 C0.319375 3.350625 -0.36125 3.70125 -1.0625 4.0625 C-5.4525621 6.95807288 -9.05917064 10.71667134 -12.4609375 14.71875 C-14 16 -14 16 -18 16 C-18.33 16.99 -18.66 17.98 -19 19 C-19.721875 19.4125 -20.44375 19.825 -21.1875 20.25 C-23.87145398 21.92001581 -25.08170812 23.19615498 -27 25.625 C-29.04464253 28.14107566 -29.70168905 28.90272469 -32.875 29.9375 C-33.57625 29.958125 -34.2775 29.97875 -35 30 C-35.1546875 30.8971875 -35.1546875 30.8971875 -35.3125 31.8125 C-36.10503854 34.33421352 -36.91591409 35.39685699 -39 37 C-39.99 37 -40.98 37 -42 37 C-42.12375 37.598125 -42.2475 38.19625 -42.375 38.8125 C-43 41 -43 41 -45 44 C-43.35 44.33 -41.7 44.66 -40 45 C-40 47 -40 49 -40 51 C-39.2575 51.0825 -38.515 51.165 -37.75 51.25 C-34.41140928 52.16052474 -33.14585979 53.31767527 -31 56 C-30.25 58.25 -30.25 58.25 -30 60 C-33.74404545 58.26169318 -36.76105502 55.96792576 -40 53.4375 C-41.95700171 51.94408993 -41.95700171 51.94408993 -44.171875 50.94921875 C-46 50 -46 50 -47.25 47.8125 C-48.18775074 44.29593472 -48.46119093 41.623643 -48 38 C-45.54412572 35.39966253 -43.21574167 34.10337622 -40 32.5625 C-36.57058256 30.77634508 -34.67737301 28.79907178 -32 26 C-26.33742948 20.70210307 -20.48547496 15.71342371 -14.390625 10.921875 C-11.42329042 8.53637073 -8.59754762 6.01477761 -5.7890625 3.4453125 C-3.95003469 1.95963501 -2.14727388 0.9743137 0 0 Z " fill="#4DBCF1" transform="translate(78,37)"/>
<path d="M0 0 C2 3 2 3 2 5 C2.66 5 3.32 5 4 5 C4.05402274 7.10388569 4.09280256 9.20816714 4.125 11.3125 C4.14820313 12.48425781 4.17140625 13.65601562 4.1953125 14.86328125 C4 18 4 18 2 21 C1.60612212 23.32387947 1.26513915 25.65793749 1 28 C-0.32 28.33 -1.64 28.66 -3 29 C-3.103125 29.5775 -3.20625 30.155 -3.3125 30.75 C-4.16688692 33.54617538 -4.91499446 34.91499446 -7 37 C-13.6685074 40.00046153 -19.23728133 40.42395878 -26.46484375 40.3515625 C-32.37888636 40.47246286 -34.8621096 41.73932353 -39 46 C-39.6084375 46.61101562 -40.216875 47.22203125 -40.84375 47.8515625 C-43.54476727 52.87034459 -42.6712719 59.47998731 -42 65 C-40.61781998 67.84594706 -39.47312422 68.95967252 -37 71 C-38.32 71 -39.64 71 -41 71 C-41.33 70.01 -41.66 69.02 -42 68 C-42.50378174 67.52530273 -43.00756348 67.05060547 -43.52661133 66.56152344 C-46.62049746 63.28256806 -45.67505747 58.04883365 -45.70458984 53.77929688 C-45.58428707 49.93271285 -45.39362888 47.61052642 -43.27734375 44.328125 C-41.26297075 42.61718749 -39.29855595 41.29236077 -37 40 C-36.34 39.34 -35.68 38.68 -35 38 C-32.51771594 37.74421429 -30.11312283 37.58011002 -27.625 37.5 C-23.32450056 37.35994542 -19.79836756 37.20634107 -16 35 C-14.989375 34.855625 -13.97875 34.71125 -12.9375 34.5625 C-9.74425678 33.95102789 -8.98361216 33.45590077 -7 31 C-4 28 -4 28 -2.4375 26.75 C-0.29149069 24.13746693 0.17580562 21.23790648 1 18 C1.33 17.34 1.66 16.68 2 16 C2.19668734 14.08596924 2.19668734 14.08596924 2.1875 12 C2.20167969 11.29875 2.21585938 10.5975 2.23046875 9.875 C2.16512323 7.75475062 2.16512323 7.75475062 0 6 C-0.125 2.875 -0.125 2.875 0 0 Z " fill="#D6DED9" transform="translate(144,111)"/>
<path d="M0 0 C0.99 0 1.98 0 3 0 C3.33 0.99 3.66 1.98 4 3 C5.65 2.67 7.3 2.34 9 2 C9.02685412 4.31243792 9.04632841 6.6249627 9.0625 8.9375 C9.07410156 10.22527344 9.08570312 11.51304688 9.09765625 12.83984375 C9 16 9 16 8 17 C1.28 16.28 1.28 16.28 0 15 C-0.33 15.33 -0.66 15.66 -1 16 C-3.33297433 16.04092937 -5.66705225 16.04241723 -8 16 C-8 13.69 -8 11.38 -8 9 C-5.525 9.495 -5.525 9.495 -3 10 C-2.67 8.02 -2.34 6.04 -2 4 C-2.66 4 -3.32 4 -4 4 C-4 4.99 -4 5.98 -4 7 C-5.32 7 -6.64 7 -8 7 C-8 5.35 -8 3.7 -8 2 C-5.69 2 -3.38 2 -1 2 C-0.67 1.34 -0.34 0.68 0 0 Z " fill="#F5EEDF" transform="translate(76,9)"/>
<path d="M0 0 C5.51756476 -0.0493521 11.03500171 -0.08569662 16.55273438 -0.10986328 C18.43068682 -0.11993534 20.30862353 -0.13359362 22.18652344 -0.15087891 C24.8822009 -0.17507453 27.57767146 -0.18647083 30.2734375 -0.1953125 C31.11619232 -0.20563507 31.95894714 -0.21595764 32.82723999 -0.22659302 C34.88621247 -0.22699144 36.94467935 -0.12257588 39 0 C39.99 0.99 39.99 0.99 41 2 C42.2684375 2.4640625 42.2684375 2.4640625 43.5625 2.9375 C44.366875 3.288125 45.17125 3.63875 46 4 C46.495 5.485 46.495 5.485 47 7 C48.33076989 7.34342449 49.66431979 7.67619874 51 8 C51.99 9.485 51.99 9.485 53 11 C52.67 11.99 52.34 12.98 52 14 C50.66079162 12.88200014 49.32877444 11.75538103 48 10.625 C47.2575 9.99851562 46.515 9.37203125 45.75 8.7265625 C44.88375 7.87191406 44.88375 7.87191406 44 7 C44 6.34 44 5.68 44 5 C43.05125 5.061875 42.1025 5.12375 41.125 5.1875 C40.09375 5.125625 39.0625 5.06375 38 5 C37.01 3.515 37.01 3.515 36 2 C33.37537756 1.73302112 30.98934067 1.65167016 28.3671875 1.70703125 C27.61535187 1.71127609 26.86351624 1.71552094 26.08889771 1.71989441 C23.68390315 1.7367083 21.27974191 1.77436376 18.875 1.8125 C17.24610584 1.82754341 15.61719856 1.84123242 13.98828125 1.85351562 C9.99186566 1.88662046 5.99607418 1.93841991 2 2 C1.9906543 2.64549805 1.98130859 3.29099609 1.97167969 3.95605469 C1.91790899 6.88813944 1.8342766 9.81864008 1.75 12.75 C1.73582031 13.76578125 1.72164062 14.7815625 1.70703125 15.828125 C1.462924 23.24898554 1.462924 23.24898554 -0.64453125 26.66796875 C-5.40048536 29.3574884 -10.73625281 28.78453302 -16 28 C-19 25.75 -19 25.75 -21 23 C-23.60194683 20.83171097 -26.18081431 18.87945712 -29 17 C-30.125 14.5 -30.125 14.5 -31 12 C-31.33 11.34 -31.66 10.68 -32 10 C-30.68 10.33 -29.36 10.66 -28 11 C-28 11.66 -28 12.32 -28 13 C-27.34 13 -26.68 13 -26 13 C-24.484375 14.57421875 -24.484375 14.57421875 -22.75 16.6875 C-17.82787036 22.92181343 -17.82787036 22.92181343 -10.98828125 26.44140625 C-7.83615876 26.62202695 -5.51316774 26.31137046 -2.8046875 24.66796875 C0.10248417 20.37013704 -0.32083135 15.82410006 -0.25 10.75 C-0.20552734 9.203125 -0.20552734 9.203125 -0.16015625 7.625 C-0.08955222 5.08325505 -0.03680991 2.54242217 0 0 Z " fill="#E2E5CE" transform="translate(91,97)"/>
<path d="M0 0 C8.58 0 17.16 0 26 0 C25.34 0.66 24.68 1.32 24 2 C23.71804014 4.79601462 23.71804014 4.79601462 23.8125 7.9375 C23.81894531 8.99839844 23.82539062 10.05929688 23.83203125 11.15234375 C23.88068831 14.07509523 23.88068831 14.07509523 25 17 C22.5625 16.625 22.5625 16.625 20 16 C18.25878454 12.51756907 18.5937644 8.49693314 18.37890625 4.65234375 C18.25386719 3.77707031 18.12882812 2.90179687 18 2 C17.34 1.67 16.68 1.34 16 1 C16 2.65 16 4.3 16 6 C15.34 4.68 14.68 3.36 14 2 C12.68 2 11.36 2 10 2 C10 6.95 10 11.9 10 17 C10.99 17.33 11.98 17.66 13 18 C9.7 18 6.4 18 3 18 C3.66 17.34 4.32 16.68 5 16 C5.30059943 13.63490639 5.49515012 11.25558119 5.625 8.875 C5.69976562 7.59367187 5.77453125 6.31234375 5.8515625 4.9921875 C5.90054688 4.00476563 5.94953125 3.01734375 6 2 C4.05925139 2.27617533 4.05925139 2.27617533 2 3 C1.34 3.99 0.68 4.98 0 6 C0 4.02 0 2.04 0 0 Z " fill="#0F597D" transform="translate(79,9)"/>
<path d="M0 0 C0.33 0 0.66 0 1 0 C1 6.6 1 13.2 1 20 C17.17 20 33.34 20 50 20 C50 20.66 50 21.32 50 22 C51.27875 22.0825 52.5575 22.165 53.875 22.25 C56.0859375 22.51171875 56.0859375 22.51171875 58 23 C59.5 25.0625 59.5 25.0625 60 27 C61.65 27 63.3 27 65 27 C65.495 28.98 65.495 28.98 66 31 C67.98 31.495 67.98 31.495 70 32 C70 32.66 70 33.32 70 34 C71.65 34.33 73.3 34.66 75 35 C75 35.66 75 36.32 75 37 C75.99 37 76.98 37 78 37 C78.99 39.97 78.99 39.97 80 43 C78.85050412 42.21366078 77.70551011 41.42073742 76.5625 40.625 C75.92441406 40.18414062 75.28632813 39.74328125 74.62890625 39.2890625 C73 38 73 38 72 36 C70.24317275 34.97784597 68.48399924 33.95804552 66.69140625 33 C65 32 65 32 63 30 C62.01 29.67 61.02 29.34 60 29 C57 28 57 28 55 26 C52.67724823 25.59952556 50.34260643 25.2602896 48 25 C48 24.34 48 23.68 48 23 C42.72624425 21.93996755 37.58343483 21.78444265 32.2265625 21.68359375 C31.3028183 21.66281265 30.3790741 21.64203156 29.42733765 21.62062073 C26.49329656 21.55553881 23.55917038 21.49643357 20.625 21.4375 C18.62889765 21.3942754 16.63280373 21.35065988 14.63671875 21.30664062 C9.75789824 21.19916869 4.87900787 21.09978824 0 21 C0 14.07 0 7.14 0 0 Z " fill="#C2E0DD" transform="translate(90,41)"/>
<path d="M0 0 C0.66 0.33 1.32 0.66 2 1 C0.53125 2.96875 0.53125 2.96875 -2 5 C-5.66170877 5.43248529 -9.12617145 5.50699743 -12.80078125 5.48828125 C-16.46285397 5.55882906 -18.51520857 5.60127089 -21.3984375 7.97265625 C-21.92695312 8.64167969 -22.45546875 9.31070313 -23 10 C-23.70125 10.309375 -24.4025 10.61875 -25.125 10.9375 C-27.77460654 12.43894371 -28.09976657 14.16080227 -29 17 C-29.33 17.99 -29.66 18.98 -30 20 C-29.79793949 22.3946101 -29.79793949 22.3946101 -29.25 24.9375 C-29.09015625 25.79214844 -28.9303125 26.64679688 -28.765625 27.52734375 C-27.93734655 30.20234508 -26.79570425 31.87376777 -25 34 C-28.41260036 32.53745699 -30.67586686 30.91233968 -33 28 C-33.9852579 22.38914822 -34.38155792 15.77648575 -31.7890625 10.56640625 C-30.28840333 8.79532373 -28.84466395 7.40465237 -27 6 C-26.45730469 5.45988281 -25.91460937 4.91976562 -25.35546875 4.36328125 C-21.74407173 2.27310287 -18.16708376 2.50673394 -14.0625 2.4375 C-8.86889048 2.32432207 -4.81761103 2.12998742 0 0 Z " fill="#328AE3" transform="translate(134,148)"/>
<path d="M0 0 C2.66666667 1.33333333 5.33333333 2.66666667 8 4 C8 4.66 8 5.32 8 6 C8.58523437 6.25136719 9.17046875 6.50273438 9.7734375 6.76171875 C15.2160424 9.78857095 18.97121681 15.22577092 21 21 C21.61875 21.721875 22.2375 22.44375 22.875 23.1875 C28.96498661 31.24777639 29.62137273 39.52370616 29.46655273 49.40698242 C29.43719278 51.4589718 29.44606265 53.50843061 29.45898438 55.56054688 C29.39481307 65.50709908 29.39481307 65.50709908 27.47290039 67.90649414 C26.98684326 68.26735107 26.50078613 68.62820801 26 69 C26.16113281 68.22785156 26.32226562 67.45570313 26.48828125 66.66015625 C27.15353292 61.90182941 27.18417002 57.2360071 27.1875 52.4375 C27.20586914 51.03854492 27.20586914 51.03854492 27.22460938 49.61132812 C27.23466165 44.91021629 27.10746847 41.29599341 25 37 C24.855625 35.824375 24.71125 34.64875 24.5625 33.4375 C23.97587365 29.8525612 23.31537697 28.67158881 21 26 C19.28976984 23.30309859 18.01253027 21.03759081 17 18 C16.34 18 15.68 18 15 18 C12.60268669 14.80358226 10.61520275 11.99881788 10 8 C8.68 7.67 7.36 7.34 6 7 C6 6.01 6 5.02 6 4 C4.35 3.67 2.7 3.34 1 3 C0.67 2.01 0.34 1.02 0 0 Z " fill="#82C4ED" transform="translate(155,73)"/>
<path d="M0 0 C4.95 0 9.9 0 15 0 C14.67 0.99 14.34 1.98 14 3 C11.69 2.67 9.38 2.34 7 2 C7 3.65 7 5.3 7 7 C8.32 7 9.64 7 11 7 C11 6.01 11 5.02 11 4 C11.66 4 12.32 4 13 4 C13 6.64 13 9.28 13 12 C12.34 11.34 11.68 10.68 11 10 C8.93125966 9.3574765 8.93125966 9.3574765 7 9 C7 11.31 7 13.62 7 16 C9.3431213 15.74438677 11.67843403 15.40729228 14 15 C14.33 14.34 14.66 13.68 15 13 C15.66 13.33 16.32 13.66 17 14 C16.34 15.32 15.68 16.64 15 18 C9.39 18 3.78 18 -2 18 C-0.68 17.34 0.64 16.68 2 16 C2.05384521 13.70858714 2.09272087 11.41681812 2.125 9.125 C2.14820313 7.84882813 2.17140625 6.57265625 2.1953125 5.2578125 C2.35641524 1.91406662 2.35641524 1.91406662 0 0 Z " fill="#065679" transform="translate(61,9)"/>
<path d="M0 0 C2.85776514 -0.53583096 4.25736803 -0.78434148 7 0 C10.0410394 2.71313602 12.52997482 5.76651249 15 9 C15.33 6.36 15.66 3.72 16 1 C15.01 0.67 14.02 0.34 13 0 C15.64 0 18.28 0 21 0 C20.01 0.33 19.02 0.66 18 1 C18 6.61 18 12.22 18 18 C14.06527452 16.68842484 12.87316576 14.66616553 10.3125 11.4375 C9.10013672 9.91962891 9.10013672 9.91962891 7.86328125 8.37109375 C7.24839844 7.58863281 6.63351563 6.80617188 6 6 C5.67 9.3 5.34 12.6 5 16 C2.86141933 11.72283867 2.62015458 8.89960469 2.34375 4.2421875 C2.19589526 1.80137133 2.19589526 1.80137133 0 0 Z " fill="#1E5D81" transform="translate(136,9)"/>
<path d="M0 0 C13.53 0 27.06 0 41 0 C41 0.33 41 0.66 41 1 C27.8 1 14.6 1 1 1 C1.15791902 8.7188316 1.15791902 8.7188316 1.36035156 16.43652344 C1.37533691 17.88333496 1.37533691 17.88333496 1.390625 19.359375 C1.41157227 20.34389648 1.43251953 21.32841797 1.45410156 22.34277344 C0.86847889 25.76961064 -0.26813779 26.91036081 -3 29 C-7.42816657 29.81183054 -9.55521263 29.99021991 -13.296875 27.42578125 C-15.28639413 25.68671577 -17.17130523 23.90651157 -19 22 C-17.68 21.67 -16.36 21.34 -15 21 C-14.46375 21.825 -13.9275 22.65 -13.375 23.5 C-11.2108641 26.25306773 -11.2108641 26.25306773 -8 26.625 C-4.92218388 26.23885568 -4.92218388 26.23885568 -2.859375 24.13671875 C-0.15763458 19.57895077 -0.32821176 15.39217323 -0.25 10.1875 C-0.1675 6.825625 -0.085 3.46375 0 0 Z " fill="#65B9E3" transform="translate(89,95)"/>
<path d="M0 0 C11.88 0 23.76 0 36 0 C36 0.99 36 1.98 36 3 C23.79 3 11.58 3 -1 3 C-0.67 2.01 -0.34 1.02 0 0 Z " fill="#20A5EF" transform="translate(91,92)"/>
<path d="M0 0 C5.2612002 -0.07530344 10.52207289 -0.12913421 15.78369141 -0.16479492 C17.56597369 -0.17969266 19.3482206 -0.20001783 21.13037109 -0.22631836 C50.87608835 -0.6536512 50.87608835 -0.6536512 56.73632812 4.53833008 C57.15333984 5.02068115 57.57035156 5.50303223 58 6 C59.9959722 6.67863055 61.99568551 7.34641919 64 8 C64.495 8.99 64.495 8.99 65 10 C55.28571429 8.28571429 55.28571429 8.28571429 52 5 C49.83682203 4.61016374 49.83682203 4.61016374 47.375 4.5 C44.16943065 4.29775588 41.45212518 3.85126924 38.33251953 3.00439453 C34.11582883 1.93333841 30.11737809 1.65724476 25.78125 1.5859375 C25.03790405 1.56657135 24.29455811 1.5472052 23.52868652 1.5272522 C21.18590277 1.4681181 18.84306808 1.42134004 16.5 1.375 C14.89841767 1.33675906 13.29685457 1.29770391 11.6953125 1.2578125 C7.79703363 1.16247248 3.89865878 1.07820206 0 1 C0 0.67 0 0.34 0 0 Z " fill="#42B9ED" transform="translate(90,63)"/>
<path d="M0 0 C0.66 0.33 1.32 0.66 2 1 C1.34 1.99 0.68 2.98 0 4 C-2.32817964 4.36760731 -4.6618385 4.70241581 -7 5 C-7.33 5.66 -7.66 6.32 -8 7 C-13.17506983 8.85840136 -19.08406837 8.22552121 -24.5 8.25 C-25.64082031 8.270625 -26.78164062 8.29125 -27.95703125 8.3125 C-29.05402344 8.31765625 -30.15101562 8.3228125 -31.28125 8.328125 C-32.78268555 8.34214355 -32.78268555 8.34214355 -34.31445312 8.35644531 C-37.40171282 7.94668175 -38.78706416 7.1616252 -41 5 C-41 4.34 -41 3.68 -41 3 C-40.43845215 3.32452148 -39.8769043 3.64904297 -39.29833984 3.98339844 C-36.74085168 5.11462647 -35.01011817 5.25797336 -32.2265625 5.265625 C-31.3190625 5.26820313 -30.4115625 5.27078125 -29.4765625 5.2734375 C-28.06503906 5.26183594 -28.06503906 5.26183594 -26.625 5.25 C-25.22507812 5.26160156 -25.22507812 5.26160156 -23.796875 5.2734375 C-18.7548103 5.25915403 -14.7499675 4.85434167 -10 3 C-8.58970341 2.78602397 -7.17203539 2.61197129 -5.75 2.5 C-1.97858349 2.38355023 -1.97858349 2.38355023 0 0 Z " fill="#F2EDDD" transform="translate(148,179)"/>
<path d="M0 0 C0.33 0 0.66 0 1 0 C1.13277344 0.61488281 1.26554688 1.22976562 1.40234375 1.86328125 C1.57894531 2.67152344 1.75554687 3.47976562 1.9375 4.3125 C2.19853516 5.51326172 2.19853516 5.51326172 2.46484375 6.73828125 C2.99886159 9.145401 2.99886159 9.145401 4 12 C4.0927629 13.60339791 4.13068464 15.21032864 4.1328125 16.81640625 C4.13474609 18.20956055 4.13474609 18.20956055 4.13671875 19.63085938 C4.13285156 20.59830078 4.12898437 21.56574219 4.125 22.5625 C4.12886719 23.53380859 4.13273438 24.50511719 4.13671875 25.50585938 C4.13542969 26.43333984 4.13414062 27.36082031 4.1328125 28.31640625 C4.13168457 29.16662354 4.13055664 30.01684082 4.12939453 30.89282227 C4 33 4 33 3 35 C2.84777386 36.43487228 2.72660069 37.8731569 2.625 39.3125 C1.98415279 45.46463321 -0.51585335 48.82510484 -5 53 C-3.152 48.248 -3.152 48.248 -1.9609375 46.3046875 C-0.36637291 42.48032526 -0.56528624 38.40271383 -0.43359375 34.3125 C-0.20126488 29.20126488 -0.20126488 29.20126488 2 27 C2.14507695 24.25514407 2.18652423 21.61519457 2.125 18.875 C2.11146484 17.74384766 2.11146484 17.74384766 2.09765625 16.58984375 C2.0740687 14.72642746 2.03819719 12.86317407 2 11 C1.34 11 0.68 11 0 11 C0 7.37 0 3.74 0 0 Z " fill="#54A8EB" transform="translate(179,103)"/>
<path d="M0 0 C2.4375 0.8125 2.4375 0.8125 5 2 C5.33 2.99 5.66 3.98 6 5 C6.66 5.33 7.32 5.66 8 6 C8.66666667 8.33333333 9.33333333 10.66666667 10 13 C10.66 13.33 11.32 13.66 12 14 C15.74270357 21.32228688 15.34760674 28.42076777 15.1875 36.5 C15.17396484 37.799375 15.16042969 39.09875 15.14648438 40.4375 C15.11132334 43.62543412 15.06210664 46.81249599 15 50 C14.67 50 14.34 50 14 50 C13.99589111 49.30028076 13.99178223 48.60056152 13.98754883 47.87963867 C13.95425069 44.64812086 13.88356885 41.41839936 13.8125 38.1875 C13.80669922 37.08728516 13.80089844 35.98707031 13.79492188 34.85351562 C13.52370315 24.63761014 10.65461638 16.80196404 4 9 C3.27840576 7.35636866 2.60648579 5.68949614 2 4 C1.34786461 2.65949948 0.68620031 1.32338632 0 0 Z " fill="#BDDEE9" transform="translate(170,84)"/>
<path d="M0 0 C0.99 0.33 1.98 0.66 3 1 C-2.34444535 7.32096128 -7.88875925 12.80366766 -14.421875 17.89453125 C-17.13278442 20.10844061 -19.56402757 22.4895464 -22 25 C-22.66 24.67 -23.32 24.34 -24 24 C-23.50628906 23.52949219 -23.01257812 23.05898438 -22.50390625 22.57421875 C-21.86324219 21.95160156 -21.22257812 21.32898438 -20.5625 20.6875 C-19.92441406 20.07261719 -19.28632812 19.45773438 -18.62890625 18.82421875 C-16.7778582 16.99355944 -16.7778582 16.99355944 -16 14 C-14.01399663 12.6459068 -12.01182457 11.31542376 -10 10 C-8.29503463 8.37253306 -6.62102968 6.71108689 -5 5 C-4.34 4.34 -3.68 3.68 -3 3 C-2.01 3 -1.02 3 0 3 C0 2.01 0 1.02 0 0 Z " fill="#C0E1E2" transform="translate(71,37)"/>
<path d="M0 0 C0.66 0.33 1.32 0.66 2 1 C1.01 1.7734375 1.01 1.7734375 0 2.5625 C-2.29945774 4.93531947 -2.29945774 4.93531947 -2.5 8.5 C-2.27217207 11.98420066 -2.27217207 11.98420066 -0.375 14.3125 C1.96897845 16.15171585 1.96897845 16.15171585 5 17 C8.36626511 18.12208837 9.80909535 19.24108303 12 22 C12.75 24.25 12.75 24.25 13 26 C9.25595455 24.26169318 6.23894498 21.96792576 3 19.4375 C1.04299829 17.94408993 1.04299829 17.94408993 -1.171875 16.94921875 C-3 16 -3 16 -4.25 13.8125 C-5.18775074 10.29593472 -5.46119093 7.623643 -5 4 C-2.5 1.5625 -2.5 1.5625 0 0 Z " fill="#A2DCF7" transform="translate(35,71)"/>
<path d="M0 0 C2.31 0 4.62 0 7 0 C6.34 0.66 5.68 1.32 5 2 C4.71804014 4.79601462 4.71804014 4.79601462 4.8125 7.9375 C4.81894531 8.99839844 4.82539062 10.05929688 4.83203125 11.15234375 C4.88068831 14.07509523 4.88068831 14.07509523 6 17 C3.5625 16.625 3.5625 16.625 1 16 C-0.50156874 12.99686252 -0.09281204 10.20932478 -0.0625 6.875 C-0.05347656 5.59367188 -0.04445313 4.31234375 -0.03515625 2.9921875 C-0.02355469 2.00476563 -0.01195313 1.01734375 0 0 Z " fill="#0B5177" transform="translate(98,9)"/>
<path d="M0 0 C2.66666667 1.33333333 5.33333333 2.66666667 8 4 C8 4.66 8 5.32 8 6 C8.58523437 6.25136719 9.17046875 6.50273438 9.7734375 6.76171875 C14.42435159 9.34827974 17.97632707 13.99918473 20.375 18.6875 C21.03043579 21.11261243 21.57552402 23.52389013 22 26 C19.74754119 23.31158141 18.11786042 21.35358125 17 18 C16.34 18 15.68 18 15 18 C12.60268669 14.80358226 10.61520275 11.99881788 10 8 C8.68 7.67 7.36 7.34 6 7 C6 6.01 6 5.02 6 4 C4.35 3.67 2.7 3.34 1 3 C0.67 2.01 0.34 1.02 0 0 Z " fill="#50B7EA" transform="translate(155,73)"/>
<path d="M0 0 C0.33 0 0.66 0 1 0 C1 2.64 1 5.28 1 8 C3.97 8.33 6.94 8.66 10 9 C10 9.33 10 9.66 10 10 C6.37 10.33 2.74 10.66 -1 11 C-1.33 11.99 -1.66 12.98 -2 14 C-2.99 14 -3.98 14 -5 14 C-5.2475 14.969375 -5.495 15.93875 -5.75 16.9375 C-6.1625 17.948125 -6.575 18.95875 -7 20 C-9.125 20.875 -9.125 20.875 -11 21 C-9.8035061 18.28069568 -8.29832216 15.95709804 -6.5625 13.5625 C-3.37466878 9.15219663 -0.78548433 5.49839029 0 0 Z " fill="#F9F4E4" transform="translate(181,142)"/>
<path d="M0 0 C1.32 0.33 2.64 0.66 4 1 C4 1.66 4 2.32 4 3 C4.66 3 5.32 3 6 3 C7.515625 4.57421875 7.515625 4.57421875 9.25 6.6875 C12.25954469 10.23964603 15.33524535 13.13970369 19 16 C18.34 16.33 17.68 16.66 17 17 C2.80754226 7.72388383 2.80754226 7.72388383 1 2 C0.67 1.34 0.34 0.68 0 0 Z " fill="#D2E1D8" transform="translate(59,107)"/>
<path d="M0 0 C2.125 0.375 2.125 0.375 4 1 C0.42582297 3.56893974 -2.44337597 4.39349365 -6.83984375 4.69140625 C-9.11852581 4.93309539 -9.11852581 4.93309539 -11.58203125 6.0078125 C-16.33031506 7.38617146 -20.83170578 7.32932043 -25.75 7.3125 C-27.18666016 7.33666992 -27.18666016 7.33666992 -28.65234375 7.36132812 C-30.02326172 7.36229492 -30.02326172 7.36229492 -31.421875 7.36328125 C-32.66855957 7.36775269 -32.66855957 7.36775269 -33.94042969 7.37231445 C-34.62008789 7.24945068 -35.29974609 7.12658691 -36 7 C-36.66 6.01 -37.32 5.02 -38 4 C-37.01 4.33 -36.02 4.66 -35 5 C-32.19637366 5.12276572 -29.42849845 5.18513218 -26.625 5.1875 C-25.86960937 5.19974609 -25.11421875 5.21199219 -24.3359375 5.22460938 C-20.01309317 5.23594551 -17.000025 4.76055063 -13 3 C-10.13876955 2.65174512 -7.30315676 2.49949428 -4.42578125 2.34375 C-1.82199563 2.22259666 -1.82199563 2.22259666 0 0 Z " fill="#7BA8DF" transform="translate(147,178)"/>
<path d="M0 0 C0.99 0 1.98 0 3 0 C3 4.62 3 9.24 3 14 C1.35 14.33 -0.3 14.66 -2 15 C-1.85973717 12.68715544 -1.71264442 10.37472409 -1.5625 8.0625 C-1.48128906 6.77472656 -1.40007813 5.48695312 -1.31640625 4.16015625 C-1 1 -1 1 0 0 Z " fill="#F3E8DF" transform="translate(61,11)"/>
<path d="M0 0 C0.66 0 1.32 0 2 0 C0.49924536 3.82010273 -1.66276681 5.67169777 -5 8 C-6.64797236 8.71162443 -8.31165408 9.39031953 -10 10 C-10.33 10.33 -10.66 10.66 -11 11 C-13.67058851 11.14115161 -16.32432238 11.04247107 -19 11 C-18.67 9.68 -18.34 8.36 -18 7 C-17.07767578 6.90912109 -17.07767578 6.90912109 -16.13671875 6.81640625 C-15.32847656 6.73261719 -14.52023438 6.64882812 -13.6875 6.5625 C-12.88699219 6.48128906 -12.08648437 6.40007812 -11.26171875 6.31640625 C-8.83912821 6.04734307 -8.83912821 6.04734307 -6 5 C-5.67 4.34 -5.34 3.68 -5 3 C-3.66666667 2.66666667 -2.33333333 2.33333333 -1 2 C-0.67 1.34 -0.34 0.68 0 0 Z " fill="#3380E2" transform="translate(156,170)"/>
<path d="M0 0 C0.33 0.99 0.66 1.98 1 3 C0.319375 3.350625 -0.36125 3.70125 -1.0625 4.0625 C-4.89081874 6.5875613 -7.83833563 9.70347791 -11 13 C-11.99771951 14.0022753 -12.99696512 15.00304412 -14 16 C-14.99 15.67 -15.98 15.34 -17 15 C-6.85 2.89807692 -6.85 2.89807692 0 0 Z " fill="#42B9ED" transform="translate(78,37)"/>
<path d="M0 0 C0.33 0.99 0.66 1.98 1 3 C0.39671875 3.53109375 -0.2065625 4.0621875 -0.828125 4.609375 C-1.62734375 5.31578125 -2.4265625 6.0221875 -3.25 6.75 C-4.03890625 7.44609375 -4.8278125 8.1421875 -5.640625 8.859375 C-7.17365629 10.25027094 -8.66245479 11.69211694 -10.09375 13.1875 C-12.50706764 15.48212989 -14.8223447 16.13336674 -18 17 C-17.21625 16.2575 -16.4325 15.515 -15.625 14.75 C-13.37450497 12.39233854 -12.33306544 10.8565688 -11 8 C-9.10353976 5.53460168 -7.96700931 4.98922753 -4.9375 4 C-1.71801108 3.23665888 -1.71801108 3.23665888 0 0 Z " fill="#599BE2" transform="translate(169,161)"/>
<path d="M0 0 C3.375 -0.125 3.375 -0.125 7 0 C7.66 0.66 8.32 1.32 9 2 C10.2684375 2.4640625 10.2684375 2.4640625 11.5625 2.9375 C12.366875 3.288125 13.17125 3.63875 14 4 C14.33 4.99 14.66 5.98 15 7 C16.33076989 7.34342449 17.66431979 7.67619874 19 8 C19.99 9.485 19.99 9.485 21 11 C20.67 11.99 20.34 12.98 20 14 C18.66079162 12.88200014 17.32877444 11.75538103 16 10.625 C15.2575 9.99851562 14.515 9.37203125 13.75 8.7265625 C13.1725 8.15679687 12.595 7.58703125 12 7 C12 6.34 12 5.68 12 5 C10.576875 5.0928125 10.576875 5.0928125 9.125 5.1875 C8.09375 5.125625 7.0625 5.06375 6 5 C5.34 4.01 4.68 3.02 4 2 C1.94996045 0.80767387 1.94996045 0.80767387 0 0 Z " fill="#D2E0D3" transform="translate(123,97)"/>
<path d="M0 0 C0.99 0.33 1.98 0.66 3 1 C2.73445312 1.51949219 2.46890625 2.03898438 2.1953125 2.57421875 C-0.11412138 7.13157956 -0.11412138 7.13157956 -2 11.875 C-3.25066403 14.53266106 -4.40728569 14.78466517 -7 16 C-8.13350534 18.01669827 -8.13350534 18.01669827 -9 20 C-9.66 20.33 -10.32 20.66 -11 21 C-10.67 19.68 -10.34 18.36 -10 17 C-9.34 17 -8.68 17 -8 17 C-7.896875 16.443125 -7.79375 15.88625 -7.6875 15.3125 C-6.85821592 12.5230899 -5.65700944 10.3860936 -4 8 C-3.34 8 -2.68 8 -2 8 C-1.34 5.36 -0.68 2.72 0 0 Z " fill="#4598E6" transform="translate(176,145)"/>
<path d="M0 0 C-7.3597164 4.62610745 -12.9919783 5.33421868 -21.49414062 5.56640625 C-22.27080078 5.59605469 -23.04746094 5.62570313 -23.84765625 5.65625 C-24.54898682 5.67494141 -25.25031738 5.69363281 -25.97290039 5.71289062 C-28.30151778 6.04270564 -29.96089668 6.85359432 -32 8 C-31.03515625 6.0390625 -31.03515625 6.0390625 -29 4 C-26.0414981 3.59536842 -23.39773594 3.39465302 -20.4375 3.375 C-14.70639878 3.65095077 -14.70639878 3.65095077 -10 1 C-8.125 0.33203125 -8.125 0.33203125 -6 -0.1875 C-4.948125 -0.45626953 -4.948125 -0.45626953 -3.875 -0.73046875 C-2 -1 -2 -1 0 0 Z " fill="#A5C7DA" transform="translate(139,146)"/>
<path d="M0 0 C-1.375 1.5 -1.375 1.5 -3 3 C-3.66 3 -4.32 3 -5 3 C-5.33 3.99 -5.66 4.98 -6 6 C-7.7421875 7.3515625 -7.7421875 7.3515625 -9.875 8.625 C-10.92300781 9.26308594 -10.92300781 9.26308594 -11.9921875 9.9140625 C-14 11 -14 11 -17 12 C-15.64362912 7.93088735 -13.25671986 6.86175076 -9.8125 4.5 C-7.71796426 3.03596546 -7.71796426 3.03596546 -7 0 C-2.25 -1.125 -2.25 -1.125 0 0 Z " fill="#CEEDFA" transform="translate(47,63)"/>
<path d="M0 0 C3.48624056 0.6456001 6.12498789 1.92360237 9 4 C9 4.99 9 5.98 9 7 C10.32 7 11.64 7 13 7 C14.8125 9.25 14.8125 9.25 16 12 C15.57421875 14.171875 15.57421875 14.171875 15 16 C14.51080078 15.25943359 14.51080078 15.25943359 14.01171875 14.50390625 C13.57472656 13.86324219 13.13773438 13.22257812 12.6875 12.5625 C12.04361328 11.60537109 12.04361328 11.60537109 11.38671875 10.62890625 C9.9965948 8.7114316 9.9965948 8.7114316 7 8 C6.690625 7.175 6.38125 6.35 6.0625 5.5 C5.711875 4.675 5.36125 3.85 5 3 C2.98491642 2.26676204 2.98491642 2.26676204 1 2 C0.67 1.34 0.34 0.68 0 0 Z " fill="#64B9E4" transform="translate(131,96)"/>
<path d="M0 0 C0.66 0 1.32 0 2 0 C2 4.62 2 9.24 2 14 C0.35 14.66 -1.3 15.32 -3 16 C-2.67 15.34 -2.34 14.68 -2 14 C-1.68416554 10.62671248 -1.48866238 7.25265635 -1.28125 3.87109375 C-1 1 -1 1 0 0 Z " fill="#DDEDE0" transform="translate(114,10)"/>
<path d="M0 0 C1.77174819 0.08723378 3.54247377 0.19541655 5.3125 0.3125 C6.29863281 0.37050781 7.28476563 0.42851563 8.30078125 0.48828125 C11.32835746 1.06225011 12.02444393 1.75374091 14 4 C15.9959722 4.67863055 17.99568551 5.34641919 20 6 C20.33 6.66 20.66 7.32 21 8 C11.28571429 6.28571429 11.28571429 6.28571429 8 3 C6.03309626 2.32707499 6.03309626 2.32707499 3.875 1.875 C2.59625 1.58625 1.3175 1.2975 0 1 C0 0.67 0 0.34 0 0 Z " fill="#56BEEA" transform="translate(134,65)"/>
<path d="M0 0 C3.05074215 -0.28780586 5.96183742 -0.45787911 9 0 C11.0625 2.5 11.0625 2.5 12 5 C10.68 4.67 9.36 4.34 8 4 C8 3.34 8 2.68 8 2 C3.31479085 3.21815438 -0.70543612 4.69559987 -5 7 C-4.34 5.68 -3.68 4.36 -3 3 C-2.34 3 -1.68 3 -1 3 C-0.67 2.01 -0.34 1.02 0 0 Z " fill="#9AD4E5" transform="translate(77,34)"/>
<path d="M0 0 C2 3 2 3 2 5 C2.66 5 3.32 5 4 5 C4.55353075 18.6332574 4.55353075 18.6332574 1 25 C0.67 25 0.34 25 0 25 C-0.25 19.375 -0.25 19.375 2 16 C2.37167184 13.23979004 2.17850636 10.81147524 2 8 C1.34 7.34 0.68 6.68 0 6 C-0.125 2.875 -0.125 2.875 0 0 Z " fill="#EDEBD3" transform="translate(144,111)"/>
<path d="M0 0 C0 1.83002752 -0.03736592 3.66116924 -0.140625 5.48828125 C-0.37803896 11.61864896 -0.1346531 15.13570224 4 20 C4.66 20.99 5.32 21.98 6 23 C2.58425014 21.5361072 0.30436672 19.93543811 -2 17 C-2.34619521 14.29498319 -2.47268308 12.05871404 -2.375 9.375 C-2.37371094 8.694375 -2.37242188 8.01375 -2.37109375 7.3125 C-2.28161154 2.28161154 -2.28161154 2.28161154 0 0 Z " fill="#74A8DF" transform="translate(103,159)"/>
<path d="M0 0 C1.32 0 2.64 0 4 0 C4.61875 0.825 5.2375 1.65 5.875 2.5 C7.78929797 5.26757911 7.78929797 5.26757911 10.9375 5.625 C14.91200282 4.81387698 16.41656195 3.03933889 19 0 C18.62120265 2.19702465 18.09789619 3.83875922 16.9375 5.75 C14.4048954 7.38393845 12.12203945 7.58833821 9.140625 7.5 C5.25856326 6.59324105 2.59340768 3.92568804 0 1 C0 0.67 0 0.34 0 0 Z " fill="#5CB1E4" transform="translate(70,116)"/>
<path d="M0 0 C1.98 0.66 3.96 1.32 6 2 C6 2.66 6 3.32 6 4 C7.65 4.33 9.3 4.66 11 5 C11 5.66 11 6.32 11 7 C11.99 7 12.98 7 14 7 C14.66 8.98 15.32 10.96 16 13 C14.85050412 12.21366078 13.70551011 11.42073742 12.5625 10.625 C11.92441406 10.18414062 11.28632813 9.74328125 10.62890625 9.2890625 C9 8 9 8 8 6 C6.38004108 4.95499149 6.38004108 4.95499149 4.5 4 C1.11111111 2.22222222 1.11111111 2.22222222 0 0 Z " fill="#BCDEE0" transform="translate(154,71)"/>
<path d="M0 0 C0 0.99 0 1.98 0 3 C-0.66 3 -1.32 3 -2 3 C-2.33 4.32 -2.66 5.64 -3 7 C-3.99 7 -4.98 7 -6 7 C-6.33 7.99 -6.66 8.98 -7 10 C-8.65 10.33 -10.3 10.66 -12 11 C-12 11.66 -12 12.32 -12 13 C-13.32 12.67 -14.64 12.34 -16 12 C-15.22076172 11.67128906 -15.22076172 11.67128906 -14.42578125 11.3359375 C-9.18873509 8.95458195 -6.46790635 6.55781978 -3 2 C-2.01 1.34 -1.02 0.68 0 0 Z " fill="#D9E0DE" transform="translate(167,166)"/>
<path d="M0 0 C4.29942535 0.47771393 6.2935135 1.61689187 9 5 C9.75 7.25 9.75 7.25 10 9 C6.55729549 7.46990911 3.81074178 5.5068778 1 3 C0.67 2.01 0.34 1.02 0 0 Z " fill="#70C6F3" transform="translate(38,88)"/>
<path d="M0 0 C0.33 0 0.66 0 1 0 C1.27573092 2.10094974 1.51978976 4.20607635 1.75 6.3125 C1.88921875 7.48425781 2.0284375 8.65601563 2.171875 9.86328125 C2 13 2 13 0.25 14.90625 C-2.88584327 16.43061826 -5.56642334 16.19809096 -9 16 C-6.53721199 13.53721199 -4.29323018 13.00228745 -1 12 C-0.67 8.04 -0.34 4.08 0 0 Z " fill="#4B6675" transform="translate(111,11)"/>
<path d="M0 0 C0.8357959 0.48218994 0.8357959 0.48218994 1.68847656 0.97412109 C4.27444132 2.1218 6.16617406 2.31095759 8.984375 2.4140625 C10.38623047 2.47207031 10.38623047 2.47207031 11.81640625 2.53125 C12.78449219 2.5621875 13.75257812 2.593125 14.75 2.625 C16.22533203 2.68300781 16.22533203 2.68300781 17.73046875 2.7421875 C20.15346037 2.83628426 22.57644796 2.92192328 25 3 C25 3.33 25 3.66 25 4 C17.41 4 9.82 4 2 4 C1.34 2.68 0.68 1.36 0 0 Z " fill="#C7D4DD" transform="translate(107,182)"/>
<path d="M0 0 C0.99 0 1.98 0 3 0 C3 0.99 3 1.98 3 3 C4.32 3 5.64 3 7 3 C7.33 4.32 7.66 5.64 8 7 C3.52599758 7.36275695 3.52599758 7.36275695 1.1875 5.75 C0 4 0 4 0 0 Z " fill="#1D73E2" transform="translate(105,174)"/>
<path d="M0 0 C2.66666667 1.33333333 5.33333333 2.66666667 8 4 C8 4.66 8 5.32 8 6 C8.61875 6.268125 9.2375 6.53625 9.875 6.8125 C12 8 12 8 14 11 C11.33333333 9.66666667 8.66666667 8.33333333 6 7 C6 6.01 6 5.02 6 4 C4.35 3.67 2.7 3.34 1 3 C0.67 2.01 0.34 1.02 0 0 Z " fill="#60C0E9" transform="translate(155,73)"/>
<path d="M0 0 C0.99 0.33 1.98 0.66 3 1 C4.1875 4.0625 4.1875 4.0625 5 7 C3.0625 7.5625 3.0625 7.5625 1 8 C0 7 0 7 -0.0625 3.4375 C-0.041875 2.303125 -0.02125 1.16875 0 0 Z " fill="#DBE8E1" transform="translate(123,18)"/>
<path d="M0 0 C0.99 0.33 1.98 0.66 3 1 C4.1875 4.0625 4.1875 4.0625 5 7 C3.0625 7.5625 3.0625 7.5625 1 8 C0 7 0 7 -0.0625 3.4375 C-0.041875 2.303125 -0.02125 1.16875 0 0 Z " fill="#DBE8E2" transform="translate(48,18)"/>
<path d="M0 0 C5.63689034 1.32632714 7.93185683 5.46631765 11 10 C8.07153324 8.57268007 5.48582937 7.13071088 3 5 C3 4.34 3 3.68 3 3 C2.01 2.67 1.02 2.34 0 2 C0 1.34 0 0.68 0 0 Z " fill="#89CDF4" transform="translate(48,97)"/>
<path d="M0 0 C2.475 0.495 2.475 0.495 5 1 C4.67 2.65 4.34 4.3 4 6 C2.68 6 1.36 6 0 6 C0 4.02 0 2.04 0 0 Z " fill="#E3EBE3" transform="translate(123,11)"/>
<path d="M0 0 C2.475 0.495 2.475 0.495 5 1 C4.67 2.65 4.34 4.3 4 6 C2.68 6 1.36 6 0 6 C0 4.02 0 2.04 0 0 Z " fill="#E3EBE3" transform="translate(48,11)"/>
<path d="M0 0 C1.39195915 4.17587745 -0.17676781 6.13474776 -2 10 C-3.32 10 -4.64 10 -6 10 C-6.33 11.32 -6.66 12.64 -7 14 C-7.66 13.67 -8.32 13.34 -9 13 C-8.25 11.0625 -8.25 11.0625 -7 9 C-6.34 8.87625 -5.68 8.7525 -5 8.625 C-4.34 8.41875 -3.68 8.2125 -3 8 C-1.75 5.08333333 -1.75 5.08333333 -1 2 C-0.67 1.34 -0.34 0.68 0 0 Z " fill="#76B4E0" transform="translate(148,131)"/>
<path d="M0 0 C1.98 0 3.96 0 6 0 C6.66 1.32 7.32 2.64 8 4 C9.65 4 11.3 4 13 4 C13.33 4.99 13.66 5.98 14 7 C10.49010705 6.35001982 8.02757788 4.84608407 5 3 C3.34630643 2.30177383 1.68272986 1.62501395 0 1 C0 0.67 0 0.34 0 0 Z " fill="#DCE8DB" transform="translate(142,64)"/>
<path d="M0 0 C2.31 0 4.62 0 7 0 C6.67 0.99 6.34 1.98 6 3 C5.34 2.67 4.68 2.34 4 2 C4 2.99 4 3.98 4 5 C2.68 5 1.36 5 0 5 C0 3.35 0 1.7 0 0 Z " fill="#FDF6E4" transform="translate(68,11)"/>
<path d="M0 0 C0.66 0.33 1.32 0.66 2 1 C0 4 0 4 -2.12890625 4.4765625 C-3.33353516 4.55003906 -3.33353516 4.55003906 -4.5625 4.625 C-7.58076447 4.60362942 -7.58076447 4.60362942 -10 6 C-11.99958364 6.04080783 -14.00045254 6.04254356 -16 6 C-16 5.67 -16 5.34 -16 5 C-12.56448591 3.71168222 -9.38601241 2.86492825 -5.75 2.5 C-1.97858349 2.38355023 -1.97858349 2.38355023 0 0 Z " fill="#C9D6DE" transform="translate(148,179)"/>
<path d="M0 0 C0.33 1.32 0.66 2.64 1 4 C0.34 4 -0.32 4 -1 4 C-1.2475 4.969375 -1.495 5.93875 -1.75 6.9375 C-2.1625 7.948125 -2.575 8.95875 -3 10 C-5.125 10.875 -5.125 10.875 -7 11 C-5.22054913 6.95579349 -2.60470327 3.53921513 0 0 Z " fill="#C5D7DF" transform="translate(177,152)"/>
<path d="M0 0 C2.7885289 -0.22107787 5.34653181 -0.28107535 8.125 -0.1875 C8.87910156 -0.17396484 9.63320312 -0.16042969 10.41015625 -0.14648438 C12.27374127 -0.11109985 14.13695978 -0.05729167 16 0 C16 0.33 16 0.66 16 1 C14.67935547 1.09087891 14.67935547 1.09087891 13.33203125 1.18359375 C11.58986328 1.30927734 11.58986328 1.30927734 9.8125 1.4375 C8.66394531 1.51871094 7.51539062 1.59992188 6.33203125 1.68359375 C3.48401829 1.95403812 0.78789518 2.37521747 -2 3 C-1.34 2.01 -0.68 1.02 0 0 Z " fill="#68A8DF" transform="translate(111,151)"/>
<path d="M0 0 C0 0.99 0 1.98 0 3 C-1.32 3.33 -2.64 3.66 -4 4 C-4.0825 4.61875 -4.165 5.2375 -4.25 5.875 C-5 8 -5 8 -7.0625 9.25 C-7.701875 9.4975 -8.34125 9.745 -9 10 C-9 9.34 -9 8.68 -9 8 C-8 7 -7 6 -6 5 C-5.649375 4.29875 -5.29875 3.5975 -4.9375 2.875 C-3.68897609 0.37795219 -2.76297958 0 0 0 Z " fill="#D0DDD7" transform="translate(145,136)"/>
<path d="M0 0 C0 3 0 3 -2 6 C-4.95264073 8.04413589 -6.36672806 9 -10 9 C-6.7 6.03 -3.4 3.06 0 0 Z " fill="#61C4EB" transform="translate(61,50)"/>
<path d="M0 0 C0.99 0 1.98 0 3 0 C3 2.97 3 5.94 3 9 C2.01 8.34 1.02 7.68 0 7 C-0.1875 3.375 -0.1875 3.375 0 0 Z " fill="#F5F3DB" transform="translate(149,10)"/>
<path d="M0 0 C0.33 0 0.66 0 1 0 C2.24200752 5.3177215 3.30834212 10.58201328 4 16 C2 13 2 13 2 11 C1.34 11 0.68 11 0 11 C0 7.37 0 3.74 0 0 Z " fill="#3EA9EC" transform="translate(179,103)"/>
<path d="M0 0 C0.598125 0.226875 1.19625 0.45375 1.8125 0.6875 C0.5 2.1875 0.5 2.1875 -1.1875 3.6875 C-2.1775 3.6875 -3.1675 3.6875 -4.1875 3.6875 C-4.31125 4.326875 -4.435 4.96625 -4.5625 5.625 C-4.76875 6.305625 -4.975 6.98625 -5.1875 7.6875 C-6.1775 8.1825 -6.1775 8.1825 -7.1875 8.6875 C-4.49237805 -0.64176829 -4.49237805 -0.64176829 0 0 Z " fill="#3EB7F0" transform="translate(40.1875,70.3125)"/>
<path d="M0 0 C0.66 0.33 1.32 0.66 2 1 C-1.01887244 4.48331435 -3.56909529 5.79157144 -8 7 C-5.42215154 4.35247996 -3.08351902 2.05567935 0 0 Z " fill="#90B7E0" transform="translate(159,171)"/>
<path d="M0 0 C0.66 0.33 1.32 0.66 2 1 C-3.14285714 7.57142857 -3.14285714 7.57142857 -7 9 C-5.64978174 4.58110387 -3.73884332 2.65654657 0 0 Z " fill="#D9E0D7" transform="translate(108,150)"/>
<path d="M0 0 C2.31 0 4.62 0 7 0 C6.34 0.66 5.68 1.32 5 2 C4.53603307 4.89223503 4.53603307 4.89223503 4.375 8.125 C4.30023438 9.22070312 4.22546875 10.31640625 4.1484375 11.4453125 C4.09945312 12.28835937 4.05046875 13.13140625 4 14 C3.67 14 3.34 14 3 14 C2.92652344 12.73542969 2.92652344 12.73542969 2.8515625 11.4453125 C2.77679688 10.34960938 2.70203125 9.25390625 2.625 8.125 C2.55539063 7.03445312 2.48578125 5.94390625 2.4140625 4.8203125 C2.26746509 1.86953526 2.26746509 1.86953526 0 0 Z " fill="#004D7B" transform="translate(109,9)"/>
<path d="M0 0 C1.32 0.33 2.64 0.66 4 1 C4 1.66 4 2.32 4 3 C4.66 3 5.32 3 6 3 C6.66 4.32 7.32 5.64 8 7 C6.25 6.875 6.25 6.875 4 6 C1.75 2.9375 1.75 2.9375 0 0 Z " fill="#9ED3F2" transform="translate(59,107)"/>
<path d="M0 0 C0.66 0 1.32 0 2 0 C1.40049704 3.68266103 0.75241109 7.34543185 0 11 C-0.33 11 -0.66 11 -1 11 C-1.02688151 9.35425434 -1.04634123 7.70838587 -1.0625 6.0625 C-1.07410156 5.14597656 -1.08570313 4.22945312 -1.09765625 3.28515625 C-1 1 -1 1 0 0 Z " fill="#56AAED" transform="translate(181,132)"/>
<path d="M0 0 C0 4.03223106 -1.64129026 5.80880447 -4 9 C-4.99 9.495 -4.99 9.495 -6 10 C-5.67 8.68 -5.34 7.36 -5 6 C-4.34 6 -3.68 6 -3 6 C-2.87625 5.38125 -2.7525 4.7625 -2.625 4.125 C-2 2 -2 2 0 0 Z " fill="#358BE4" transform="translate(171,156)"/>
<path d="M0 0 C0.66666667 1.33333333 1.33333333 2.66666667 2 4 C2.391875 4.66 2.78375 5.32 3.1875 6 C4.17413108 8.42863035 3.86626039 9.57447091 3 12 C0.58314288 7.77050005 -0.34833144 4.87664009 0 0 Z " fill="#E0E8DE" transform="translate(181,98)"/>
<path d="M0 0 C0.66 0.33 1.32 0.66 2 1 C0.875 2.5 0.875 2.5 -1 4 C-4.1875 4.1875 -4.1875 4.1875 -7 4 C-4.61426621 2.10786631 -2.92824652 0.97608217 0 0 Z " fill="#479AE3" transform="translate(134,148)"/>
<path d="M0 0 C0.33 0 0.66 0 1 0 C1 2.64 1 5.28 1 8 C-0.32 8.33 -1.64 8.66 -3 9 C-2.01 6.03 -1.02 3.06 0 0 Z " fill="#D5E7F8" transform="translate(181,142)"/>
<path d="M0 0 C0.66 0 1.32 0 2 0 C1.67 1.65 1.34 3.3 1 5 C-0.98 5.66 -2.96 6.32 -5 7 C-4.0409375 6.1028125 -4.0409375 6.1028125 -3.0625 5.1875 C-0.79689611 3.09189663 -0.79689611 3.09189663 0 0 Z " fill="#4099E4" transform="translate(142,141)"/>
<path d="M0 0 C2 3 2 3 2 5 C2.66 5 3.32 5 4 5 C3.67 6.32 3.34 7.64 3 9 C1.5 7.875 1.5 7.875 0 6 C-0.1875 2.8125 -0.1875 2.8125 0 0 Z " fill="#E2E6D4" transform="translate(144,111)"/>
<path d="M0 0 C3.36720387 1.39332574 4.9859524 2.9789286 7 6 C4.0625 5.25 4.0625 5.25 1 4 C0.125 1.875 0.125 1.875 0 0 Z " fill="#C0E7FA" transform="translate(32,84)"/>
<path d="M0 0 C2.64 0 5.28 0 8 0 C7.67 0.99 7.34 1.98 7 3 C5.68 3 4.36 3 3 3 C3 2.34 3 1.68 3 1 C2.01 0.67 1.02 0.34 0 0 Z " fill="#27AFF0" transform="translate(134,67)"/>
</svg>
